<svg xmlns="http://www.w3.org/2000/svg" xmlns:xlink="http://www.w3.org/1999/xlink" width="500" zoomAndPan="magnify" viewBox="0 0 375 374.999991" height="500" preserveAspectRatio="xMidYMid meet" version="1.0"><defs><clipPath id="id1"><path d="M 86 179 L 301 179 L 301 243.386719 L 86 243.386719 Z M 86 179 " clip-rule="nonzero"/></clipPath><clipPath id="id2"><path d="M 171 70.136719 L 178 70.136719 L 178 79 L 171 79 Z M 171 70.136719 " clip-rule="nonzero"/></clipPath><clipPath id="id3"><path d="M 82.886719 242.699219 L 307.515625 242.699219 L 307.515625 243.113281 L 82.886719 243.113281 Z M 82.886719 242.699219 " clip-rule="nonzero"/></clipPath><clipPath id="id4"><path d="M 160.167969 242.421875 L 171.78125 242.421875 L 171.78125 243.386719 L 160.167969 243.386719 Z M 160.167969 242.421875 " clip-rule="nonzero"/></clipPath><clipPath id="id5"><path d="M 151.734375 242.421875 L 163.210938 242.421875 L 163.210938 243.386719 L 151.734375 243.386719 Z M 151.734375 242.421875 " clip-rule="nonzero"/></clipPath><clipPath id="id6"><path d="M 199.707031 242.421875 L 210.769531 242.421875 L 210.769531 243.386719 L 199.707031 243.386719 Z M 199.707031 242.421875 " clip-rule="nonzero"/></clipPath><clipPath id="id7"><path d="M 187.402344 242.421875 L 198.464844 242.421875 L 198.464844 243.386719 L 187.402344 243.386719 Z M 187.402344 242.421875 " clip-rule="nonzero"/></clipPath></defs><g clip-path="url(#id1)"><path fill="#caefff" d="M 298.78125 231.421875 C 297.320312 229.128906 294.558594 227.484375 291.894531 228.042969 C 288.351562 228.789062 286.386719 232.875 282.933594 233.953125 C 278.675781 235.28125 274.355469 231.234375 273.351562 226.894531 C 272.347656 222.554688 273.527344 218.054688 273.972656 213.625 C 274.417969 209.191406 273.851562 204.128906 270.378906 201.332031 C 267.664062 199.144531 263.859375 198.933594 260.390625 199.296875 C 253.722656 200 247.246094 202.5 241.84375 206.46875 C 240.300781 207.601562 238.765625 208.886719 236.886719 209.261719 C 234.230469 209.796875 231.578125 208.371094 229.4375 206.710938 C 225.238281 203.453125 228.65625 193.707031 217.941406 190.898438 C 193.664062 184.523438 187.246094 209.007812 174.660156 218.175781 C 172.734375 219.578125 170.636719 220.96875 168.257812 221.125 C 163.511719 221.433594 160.070312 216.96875 156.304688 214.0625 C 150.523438 209.59375 142.292969 208.515625 135.554688 211.351562 C 132.964844 212.441406 130.375 214.078125 127.761719 215.128906 C 128.992188 206.886719 129.398438 198.578125 127.925781 190.414062 C 127.308594 186.980469 126.203125 183.359375 123.441406 181.21875 C 120.679688 179.082031 115.855469 179.414062 114.460938 182.613281 C 114.007812 183.652344 113.96875 184.820312 113.949219 185.957031 C 113.789062 194.152344 114.097656 202.375 115.070312 210.519531 C 113.632812 208.210938 112.417969 205.589844 110.78125 203.472656 C 106.859375 198.386719 99.648438 196.105469 93.503906 198.003906 C 91.40625 198.652344 89.394531 199.785156 88.066406 201.53125 C 85.792969 204.511719 85.894531 208.644531 86.476562 212.351562 C 88.296875 223.917969 93.90625 234.859375 102.234375 243.105469 C 102.234375 243.105469 299.84375 243.160156 300.710938 243.105469 C 300.628906 240.386719 300.242188 233.714844 298.78125 231.421875 " fill-opacity="1" fill-rule="nonzero"/></g><path fill="#dd9a34" d="M 214.230469 242.507812 C 214.21875 242.507812 214.207031 242.503906 214.199219 242.503906 C 214.046875 242.488281 213.9375 242.351562 213.953125 242.199219 C 213.972656 242.019531 216.054688 224.097656 224.59375 205.335938 C 229.617188 194.308594 235.855469 185.148438 243.136719 178.113281 C 252.25 169.308594 263.03125 163.824219 275.179688 161.8125 C 275.328125 161.789062 275.472656 161.890625 275.496094 162.039062 C 275.523438 162.191406 275.421875 162.332031 275.269531 162.359375 C 263.234375 164.351562 252.554688 169.785156 243.523438 178.511719 C 236.289062 185.5 230.089844 194.601562 225.097656 205.566406 C 216.59375 224.246094 214.523438 242.082031 214.503906 242.261719 C 214.488281 242.402344 214.367188 242.507812 214.230469 242.507812 " fill-opacity="1" fill-rule="nonzero"/><path fill="#dd9a34" d="M 275.382812 174.738281 C 274.269531 174.738281 272.910156 174.648438 271.460938 174.351562 C 268.097656 173.664062 263.601562 171.6875 261.273438 166.179688 C 259.949219 163.035156 260.421875 159.519531 262.648438 156.015625 C 264.3125 153.394531 266.339844 151.722656 266.425781 151.652344 C 266.542969 151.558594 266.714844 151.574219 266.8125 151.691406 C 266.910156 151.808594 266.894531 151.984375 266.773438 152.082031 C 266.753906 152.097656 264.726562 153.773438 263.105469 156.324219 C 260.960938 159.710938 260.515625 162.953125 261.785156 165.964844 C 263.578125 170.210938 266.867188 172.851562 271.570312 173.808594 C 275.089844 174.527344 278.109375 173.984375 278.140625 173.980469 C 278.289062 173.953125 278.4375 174.050781 278.464844 174.199219 C 278.492188 174.347656 278.390625 174.492188 278.242188 174.523438 C 278.167969 174.535156 277.046875 174.738281 275.382812 174.738281 " fill-opacity="1" fill-rule="nonzero"/><path fill="#ff757b" d="M 277.597656 162.507812 C 277.347656 163.910156 276.007812 164.839844 274.601562 164.589844 C 273.199219 164.339844 272.261719 163 272.511719 161.601562 C 272.761719 160.199219 274.105469 159.269531 275.507812 159.519531 C 276.914062 159.769531 277.847656 161.109375 277.597656 162.507812 " fill-opacity="1" fill-rule="nonzero"/><path fill="#ff757b" d="M 269.246094 152.320312 C 268.996094 153.710938 267.664062 154.636719 266.269531 154.386719 C 264.875 154.140625 263.945312 152.808594 264.195312 151.417969 C 264.441406 150.027344 265.777344 149.101562 267.171875 149.351562 C 268.566406 149.601562 269.492188 150.929688 269.246094 152.320312 " fill-opacity="1" fill-rule="nonzero"/><path fill="#ff757b" d="M 280.71875 174.777344 C 280.46875 176.179688 279.128906 177.109375 277.726562 176.859375 C 276.320312 176.609375 275.382812 175.273438 275.632812 173.871094 C 275.886719 172.46875 277.226562 171.539062 278.632812 171.789062 C 280.035156 172.039062 280.972656 173.378906 280.71875 174.777344 " fill-opacity="1" fill-rule="nonzero"/><path fill="#ff757b" d="M 269.320312 175.003906 C 269.070312 176.40625 267.726562 177.335938 266.324219 177.085938 C 264.917969 176.835938 263.984375 175.496094 264.234375 174.097656 C 264.484375 172.695312 265.828125 171.765625 267.230469 172.015625 C 268.636719 172.265625 269.574219 173.601562 269.320312 175.003906 " fill-opacity="1" fill-rule="nonzero"/><path fill="#ff757b" d="M 263.460938 156.898438 C 263.214844 158.289062 261.878906 159.214844 260.484375 158.964844 C 259.089844 158.714844 258.164062 157.386719 258.410156 155.996094 C 258.660156 154.605469 259.992188 153.679688 261.386719 153.929688 C 262.78125 154.175781 263.710938 155.507812 263.460938 156.898438 " fill-opacity="1" fill-rule="nonzero"/><path fill="#ff757b" d="M 270.105469 162.171875 C 269.855469 163.570312 268.515625 164.503906 267.109375 164.253906 C 265.707031 164.003906 264.769531 162.664062 265.019531 161.261719 C 265.269531 159.863281 266.613281 158.929688 268.015625 159.179688 C 269.421875 159.429688 270.359375 160.769531 270.105469 162.171875 " fill-opacity="1" fill-rule="nonzero"/><path fill="#f7bfa3" d="M 236.539062 110.214844 L 236.53125 110.214844 L 242.230469 125.992188 C 242.816406 127.613281 242.21875 129.425781 240.78125 130.382812 L 231.515625 136.554688 L 223.683594 126.863281 L 236.222656 124.1875 L 233.328125 111.105469 L 236.539062 110.214844 " fill-opacity="1" fill-rule="nonzero"/><path fill="#ed9d8d" d="M 237.226562 127.285156 C 237.167969 127.285156 237.113281 127.25 237.097656 127.191406 L 236.089844 124.234375 C 236.066406 124.160156 236.105469 124.082031 236.179688 124.058594 C 236.25 124.035156 236.328125 124.070312 236.351562 124.144531 L 237.355469 127.101562 C 237.382812 127.175781 237.34375 127.253906 237.269531 127.277344 C 237.257812 127.28125 237.242188 127.285156 237.226562 127.285156 " fill-opacity="1" fill-rule="nonzero"/><path fill="#f7bfa3" d="M 233.96875 108.738281 C 233.972656 108.746094 233.972656 108.753906 233.976562 108.757812 L 233.972656 108.761719 C 233.972656 108.753906 233.972656 108.746094 233.96875 108.738281 Z M 236.003906 107.453125 C 235.914062 107.144531 235.589844 106.96875 235.277344 107.0625 C 234.992188 107.144531 234.824219 107.429688 234.871094 107.714844 C 234.753906 107.453125 234.457031 107.3125 234.175781 107.398438 C 233.871094 107.488281 233.695312 107.808594 233.78125 108.113281 C 233.675781 107.828125 233.363281 107.664062 233.066406 107.753906 C 232.757812 107.847656 232.582031 108.171875 232.671875 108.480469 L 232.847656 109.066406 C 232.855469 109.089844 232.867188 109.113281 232.878906 109.132812 L 232.582031 109.234375 C 232.332031 109.320312 232.238281 109.625 232.394531 109.839844 L 233.328125 111.105469 L 236.539062 110.214844 L 236.003906 107.453125 " fill-opacity="1" fill-rule="nonzero"/><path fill="#ed9d8d" d="M 234.898438 110.511719 C 234.84375 110.511719 234.796875 110.480469 234.773438 110.429688 C 234.519531 109.890625 233.5625 109.875 233.554688 109.875 C 233.488281 109.875 233.429688 109.828125 233.421875 109.761719 C 233.410156 109.695312 233.445312 109.628906 233.507812 109.605469 C 233.511719 109.605469 233.660156 109.550781 234.152344 109.332031 C 234.414062 109.214844 234.433594 108.957031 234.417969 108.800781 L 233.109375 109.195312 C 233.035156 109.21875 232.957031 109.175781 232.9375 109.101562 C 232.914062 109.03125 232.957031 108.953125 233.027344 108.929688 L 234.484375 108.492188 C 234.558594 108.46875 234.636719 108.511719 234.660156 108.582031 C 234.734375 108.835938 234.75 109.367188 234.261719 109.585938 C 234.195312 109.617188 234.132812 109.644531 234.078125 109.667969 C 234.421875 109.75 234.839844 109.925781 235.023438 110.3125 C 235.054688 110.382812 235.023438 110.464844 234.957031 110.496094 C 234.9375 110.507812 234.917969 110.511719 234.898438 110.511719 " fill-opacity="1" fill-rule="nonzero"/><path fill="#ed9d8d" d="M 234.535156 109.210938 C 234.480469 109.210938 234.425781 109.175781 234.40625 109.117188 C 234.382812 109.046875 234.417969 108.96875 234.488281 108.941406 L 234.800781 108.832031 C 234.917969 108.792969 234.980469 108.675781 234.949219 108.554688 L 234.765625 107.820312 C 234.746094 107.746094 234.789062 107.671875 234.863281 107.652344 C 234.9375 107.632812 235.011719 107.679688 235.03125 107.753906 L 235.21875 108.488281 C 235.285156 108.746094 235.144531 109.007812 234.890625 109.09375 L 234.582031 109.203125 C 234.566406 109.207031 234.550781 109.210938 234.535156 109.210938 " fill-opacity="1" fill-rule="nonzero"/><path fill="#ed9d8d" d="M 233.96875 108.878906 C 233.910156 108.878906 233.855469 108.839844 233.835938 108.78125 L 233.648438 108.15625 C 233.625 108.082031 233.667969 108.003906 233.742188 107.980469 C 233.8125 107.960938 233.890625 108 233.914062 108.074219 L 234.101562 108.699219 C 234.125 108.773438 234.082031 108.851562 234.011719 108.871094 C 233.996094 108.875 233.984375 108.878906 233.96875 108.878906 " fill-opacity="1" fill-rule="nonzero"/><path fill="#ed9d8d" d="M 235.449219 108.949219 C 235.25 108.949219 235.105469 108.894531 235.089844 108.886719 C 235.019531 108.859375 234.984375 108.78125 235.011719 108.710938 C 235.039062 108.636719 235.121094 108.601562 235.191406 108.632812 C 235.210938 108.636719 235.625 108.789062 235.941406 108.46875 C 235.996094 108.414062 236.085938 108.414062 236.140625 108.464844 C 236.195312 108.519531 236.195312 108.605469 236.140625 108.660156 C 235.914062 108.890625 235.65625 108.949219 235.449219 108.949219 " fill-opacity="1" fill-rule="nonzero"/><path fill="#142c39" d="M 206.828125 160.035156 L 202.796875 184.117188 L 207.78125 213.640625 L 213.449219 213.636719 L 213.375 186.175781 L 218.265625 159.925781 L 206.828125 160.035156 " fill-opacity="1" fill-rule="nonzero"/><path fill="#142c39" d="M 227.863281 159.835938 L 226.355469 214.578125 L 221.527344 213.960938 L 214.335938 156.585938 L 227.863281 159.835938 " fill-opacity="1" fill-rule="nonzero"/><path fill="#ff757b" d="M 207.265625 213.34375 C 203.335938 213.929688 202.09375 215.648438 202.09375 215.648438 L 213.453125 215.636719 L 213.449219 213.339844 L 207.265625 213.34375 " fill-opacity="1" fill-rule="nonzero"/><path fill="#142c39" d="M 202.09375 215.648438 L 202.09375 216.507812 L 213.453125 216.496094 L 213.453125 215.636719 L 202.09375 215.648438 " fill-opacity="1" fill-rule="nonzero"/><path fill="#142c39" d="M 219.15625 215.628906 L 219.160156 216.492188 L 227.277344 216.484375 L 227.277344 215.621094 L 219.15625 215.628906 " fill-opacity="1" fill-rule="nonzero"/><path fill="#fdbc2a" d="M 213.195312 128.714844 L 222.15625 127.28125 C 226.164062 126.457031 229.851562 129.671875 229.582031 133.746094 L 227.863281 159.835938 L 206.828125 160.035156 L 206.277344 136.179688 C 206.1875 132.253906 209.078125 129.5625 213.195312 128.714844 " fill-opacity="1" fill-rule="nonzero"/><path fill="#10120f" d="M 216.179688 171.300781 L 215.8125 167.445312 L 212.761719 165.453125 L 215.160156 167.890625 L 213.582031 185.074219 L 216.179688 171.300781 " fill-opacity="1" fill-rule="nonzero"/><path fill="#10120f" d="M 227.453125 164.8125 C 227.433594 164.8125 227.417969 164.808594 227.398438 164.800781 C 223.328125 163.105469 224.089844 160.015625 224.097656 159.984375 C 224.117188 159.910156 224.191406 159.867188 224.265625 159.886719 C 224.339844 159.90625 224.382812 159.980469 224.363281 160.054688 C 224.335938 160.171875 223.664062 162.949219 227.503906 164.546875 C 227.574219 164.574219 227.609375 164.65625 227.582031 164.726562 C 227.558594 164.777344 227.507812 164.8125 227.453125 164.8125 " fill-opacity="1" fill-rule="nonzero"/><path fill="#10120f" d="M 224.890625 213.894531 C 224.8125 213.894531 224.75 213.832031 224.75 213.753906 L 225.441406 163.546875 C 225.441406 163.472656 225.503906 163.410156 225.578125 163.410156 C 225.578125 163.410156 225.578125 163.410156 225.582031 163.410156 C 225.65625 163.410156 225.71875 163.472656 225.714844 163.550781 L 225.027344 213.757812 C 225.027344 213.835938 224.964844 213.894531 224.890625 213.894531 " fill-opacity="1" fill-rule="nonzero"/><path fill="#10120f" d="M 206.71875 164.277344 C 206.667969 164.277344 206.621094 164.25 206.59375 164.203125 C 206.558594 164.136719 206.585938 164.054688 206.65625 164.019531 C 207.75 163.453125 208.449219 162.640625 208.734375 161.597656 C 208.945312 160.820312 208.835938 160.210938 208.835938 160.203125 C 208.824219 160.128906 208.871094 160.058594 208.949219 160.042969 C 209.023438 160.027344 209.09375 160.078125 209.109375 160.152344 C 209.113281 160.179688 209.566406 162.828125 206.78125 164.261719 C 206.761719 164.273438 206.738281 164.277344 206.71875 164.277344 " fill-opacity="1" fill-rule="nonzero"/><path fill="#ff757b" d="M 219.15625 215.628906 L 227.277344 215.621094 C 227.277344 215.621094 226.519531 213.738281 223.496094 213.550781 C 220.476562 213.367188 219.15625 215.628906 219.15625 215.628906 " fill-opacity="1" fill-rule="nonzero"/><path fill="#ffffff" d="M 207.40625 214.492188 C 207.351562 214.492188 207.300781 214.460938 207.277344 214.40625 C 207.011719 213.773438 206.375 213.777344 206.375 213.78125 C 206.296875 213.78125 206.234375 213.722656 206.234375 213.648438 C 206.230469 213.570312 206.289062 213.507812 206.367188 213.503906 C 206.398438 213.503906 207.195312 213.496094 207.535156 214.300781 C 207.5625 214.371094 207.53125 214.453125 207.460938 214.480469 C 207.441406 214.488281 207.425781 214.492188 207.40625 214.492188 " fill-opacity="1" fill-rule="nonzero"/><path fill="#ffffff" d="M 208.441406 214.269531 C 208.386719 214.269531 208.335938 214.234375 208.3125 214.183594 C 208.050781 213.554688 207.4375 213.558594 207.410156 213.558594 C 207.40625 213.558594 207.40625 213.558594 207.40625 213.558594 C 207.332031 213.558594 207.269531 213.496094 207.269531 213.421875 C 207.265625 213.347656 207.324219 213.285156 207.402344 213.28125 C 207.4375 213.28125 208.230469 213.269531 208.570312 214.078125 C 208.597656 214.144531 208.566406 214.226562 208.496094 214.257812 C 208.476562 214.265625 208.460938 214.269531 208.441406 214.269531 " fill-opacity="1" fill-rule="nonzero"/><path fill="#fdbc2a" d="M 221.066406 127.503906 L 230.472656 125.148438 L 233.449219 136.097656 L 228.648438 138.683594 L 221.066406 127.503906 " fill-opacity="1" fill-rule="nonzero"/><path fill="#ed9d8d" d="M 230.585938 125.570312 L 233.242188 135.351562 L 235.554688 133.808594 Z M 230.585938 125.570312 " fill-opacity="1" fill-rule="nonzero"/><path fill="#f7bfa3" d="M 222.546875 120.234375 L 222.546875 117.949219 L 216.300781 117.945312 L 216.296875 120.761719 C 215.859375 120.726562 214.875 120.742188 214.765625 121.546875 C 214.660156 122.335938 215.007812 123.503906 216.320312 123.667969 L 216.316406 124.8125 C 216.316406 125.199219 216.558594 125.539062 216.910156 125.671875 L 216.15625 128.3125 L 219.066406 132.089844 L 220.71875 127.554688 L 220.179688 126.195312 C 221.007812 126.199219 221.742188 125.660156 221.988281 124.871094 L 222.542969 123.109375 C 223 123.078125 223.628906 122.820312 223.777344 121.648438 C 223.988281 119.9375 222.769531 120.175781 222.546875 120.234375 " fill-opacity="1" fill-rule="nonzero"/><path fill="#ed9d8d" d="M 220.179688 126.195312 C 220.179688 126.195312 219.269531 126.339844 217.414062 125.726562 L 220.71875 127.554688 L 220.179688 126.195312 " fill-opacity="1" fill-rule="nonzero"/><path fill="#ed9d8d" d="M 215.292969 122.167969 C 215.289062 122.167969 215.289062 122.167969 215.285156 122.167969 C 215.207031 122.160156 215.148438 122.09375 215.15625 122.019531 C 215.203125 121.320312 215.773438 121.121094 216.070312 121.113281 C 216.070312 121.113281 216.074219 121.113281 216.074219 121.113281 C 216.148438 121.113281 216.210938 121.171875 216.210938 121.246094 C 216.214844 121.324219 216.15625 121.386719 216.078125 121.390625 C 216.015625 121.390625 215.472656 121.429688 215.429688 122.039062 C 215.425781 122.113281 215.367188 122.167969 215.292969 122.167969 " fill-opacity="1" fill-rule="nonzero"/><path fill="#ed9d8d" d="M 216.320312 122.507812 C 216.257812 122.507812 216.199219 122.460938 216.183594 122.398438 C 216.074219 121.859375 215.503906 121.582031 215.496094 121.578125 C 215.429688 121.546875 215.398438 121.464844 215.433594 121.394531 C 215.464844 121.328125 215.546875 121.296875 215.617188 121.332031 C 215.644531 121.34375 216.316406 121.667969 216.457031 122.339844 C 216.472656 122.414062 216.421875 122.488281 216.347656 122.503906 C 216.339844 122.507812 216.332031 122.507812 216.320312 122.507812 " fill-opacity="1" fill-rule="nonzero"/><path fill="#142c39" d="M 218.632812 120.238281 C 218.632812 120.410156 218.535156 120.550781 218.417969 120.550781 C 218.300781 120.550781 218.207031 120.410156 218.207031 120.238281 C 218.207031 120.066406 218.300781 119.925781 218.417969 119.925781 C 218.539062 119.925781 218.632812 120.066406 218.632812 120.238281 " fill-opacity="1" fill-rule="nonzero"/><path fill="#142c39" d="M 220.957031 120.238281 C 220.957031 120.414062 220.859375 120.554688 220.742188 120.554688 C 220.625 120.554688 220.53125 120.414062 220.53125 120.238281 C 220.53125 120.066406 220.625 119.925781 220.742188 119.925781 C 220.859375 119.925781 220.957031 120.066406 220.957031 120.238281 " fill-opacity="1" fill-rule="nonzero"/><path fill="#142c39" d="M 217.835938 119.671875 C 217.777344 119.671875 217.722656 119.636719 217.703125 119.578125 C 217.679688 119.503906 217.71875 119.425781 217.792969 119.402344 C 218.417969 119.199219 218.882812 119.390625 218.898438 119.398438 C 218.96875 119.429688 219.003906 119.511719 218.972656 119.582031 C 218.945312 119.652344 218.863281 119.683594 218.792969 119.652344 C 218.785156 119.652344 218.398438 119.496094 217.878906 119.667969 C 217.863281 119.671875 217.847656 119.671875 217.835938 119.671875 " fill-opacity="1" fill-rule="nonzero"/><path fill="#142c39" d="M 217.414062 115.277344 L 219.902344 115.28125 L 223.820312 115.285156 C 224.058594 117.351562 222.988281 118.742188 221.710938 118.875 C 220.359375 119.015625 219.722656 118.71875 219.242188 118.417969 C 218.601562 118.015625 217.785156 117.980469 217.164062 118.40625 C 216.605469 118.789062 216.234375 119.476562 216.390625 120.75 C 216.390625 120.75 214.960938 120.617188 214.765625 121.546875 L 214.765625 117.921875 C 214.761719 116.460938 215.949219 115.277344 217.414062 115.277344 " fill-opacity="1" fill-rule="nonzero"/><path fill="#142c39" d="M 220.460938 119.675781 C 220.398438 119.675781 220.34375 119.636719 220.324219 119.574219 C 220.304688 119.5 220.347656 119.425781 220.421875 119.402344 C 220.441406 119.398438 220.878906 119.28125 221.300781 119.359375 C 221.375 119.371094 221.425781 119.445312 221.410156 119.519531 C 221.398438 119.59375 221.328125 119.644531 221.25 119.628906 C 220.890625 119.5625 220.5 119.667969 220.496094 119.671875 C 220.484375 119.671875 220.472656 119.675781 220.460938 119.675781 " fill-opacity="1" fill-rule="nonzero"/><path fill="#3d4f6b" d="M 221.339844 118.5625 C 221.273438 118.5625 221.214844 118.515625 221.207031 118.449219 C 221.191406 118.375 221.242188 118.300781 221.316406 118.289062 C 221.628906 118.234375 221.90625 118.046875 222.140625 117.871094 C 222.457031 117.625 222.683594 117.402344 222.84375 117.167969 C 222.980469 116.96875 223.144531 116.648438 223.136719 116.277344 C 223.132812 116.203125 223.195312 116.136719 223.269531 116.136719 C 223.347656 116.136719 223.410156 116.195312 223.414062 116.269531 C 223.425781 116.714844 223.234375 117.089844 223.070312 117.324219 C 222.894531 117.585938 222.648438 117.828125 222.308594 118.089844 C 222.050781 118.285156 221.738281 118.496094 221.363281 118.558594 C 221.359375 118.5625 221.347656 118.5625 221.339844 118.5625 " fill-opacity="1" fill-rule="nonzero"/><path fill="#3d4f6b" d="M 220.167969 118.316406 C 220.113281 118.316406 220.0625 118.285156 220.039062 118.230469 C 220.011719 118.160156 220.042969 118.078125 220.113281 118.050781 C 220.449219 117.914062 220.714844 117.757812 220.925781 117.578125 C 221.179688 117.363281 221.355469 117.109375 221.441406 116.839844 C 221.464844 116.765625 221.542969 116.726562 221.613281 116.75 C 221.6875 116.773438 221.726562 116.851562 221.703125 116.921875 C 221.605469 117.242188 221.398438 117.539062 221.105469 117.789062 C 220.871094 117.988281 220.582031 118.15625 220.21875 118.304688 C 220.203125 118.3125 220.183594 118.316406 220.167969 118.316406 " fill-opacity="1" fill-rule="nonzero"/><path fill="#ed9d8d" d="M 219.546875 122.078125 C 219.445312 122.078125 219.339844 122.0625 219.238281 122.039062 C 219.164062 122.019531 219.121094 121.941406 219.140625 121.867188 C 219.160156 121.796875 219.234375 121.75 219.308594 121.769531 C 219.457031 121.808594 219.609375 121.808594 219.757812 121.777344 C 219.746094 121.261719 219.652344 120.765625 219.480469 120.285156 C 219.453125 120.214844 219.492188 120.132812 219.5625 120.109375 C 219.632812 120.082031 219.714844 120.121094 219.738281 120.191406 C 219.929688 120.714844 220.027344 121.265625 220.035156 121.824219 C 220.035156 121.847656 220.035156 121.894531 220.007812 121.941406 C 219.964844 122.007812 219.898438 122.027344 219.871094 122.035156 C 219.765625 122.0625 219.65625 122.078125 219.546875 122.078125 " fill-opacity="1" fill-rule="nonzero"/><path fill="#142c39" d="M 222.9375 118.179688 L 222.933594 120.191406 C 222.933594 120.191406 222.304688 120.117188 221.992188 120.832031 L 221.996094 118.628906 L 222.9375 118.179688 " fill-opacity="1" fill-rule="nonzero"/><path fill="#ed9d8d" d="M 223.355469 121.511719 C 223.347656 121.511719 223.335938 121.511719 223.324219 121.507812 C 223.25 121.492188 223.203125 121.417969 223.21875 121.34375 C 223.246094 121.230469 223.210938 121.101562 223.132812 121 C 223.058594 120.902344 222.9375 120.828125 222.796875 120.789062 C 222.726562 120.765625 222.683594 120.691406 222.703125 120.617188 C 222.726562 120.542969 222.800781 120.5 222.875 120.523438 C 223.070312 120.578125 223.238281 120.6875 223.351562 120.828125 C 223.480469 120.996094 223.535156 121.210938 223.488281 121.402344 C 223.476562 121.46875 223.417969 121.511719 223.355469 121.511719 " fill-opacity="1" fill-rule="nonzero"/><path fill="#ed9d8d" d="M 222.773438 122.050781 C 222.699219 122.050781 222.636719 121.992188 222.636719 121.914062 C 222.628906 121.558594 222.753906 121.195312 222.992188 120.921875 C 223.039062 120.863281 223.128906 120.859375 223.183594 120.910156 C 223.242188 120.957031 223.25 121.046875 223.199219 121.101562 C 223.011719 121.324219 222.90625 121.617188 222.914062 121.910156 C 222.914062 121.984375 222.855469 122.046875 222.777344 122.050781 C 222.777344 122.050781 222.777344 122.050781 222.773438 122.050781 " fill-opacity="1" fill-rule="nonzero"/><path fill="#142c39" d="M 222.542969 123.109375 C 222.542969 123.109375 222.503906 126.296875 219.890625 126.394531 C 217.277344 126.492188 215.441406 125.933594 216.457031 122.976562 C 216.917969 121.640625 221.523438 122.164062 222.542969 123.109375 " fill-opacity="1" fill-rule="nonzero"/><path fill="#ffffff" d="M 220.28125 122.804688 C 220.28125 122.804688 219.410156 122.882812 218.410156 122.304688 C 218.410156 122.304688 218.582031 123.203125 219.394531 123.332031 C 219.914062 123.417969 220.28125 122.804688 220.28125 122.804688 " fill-opacity="1" fill-rule="nonzero"/><path fill="#142c39" d="M 219.21875 134.34375 C 219.175781 134.34375 219.136719 134.324219 219.113281 134.289062 L 214.578125 128.730469 C 214.53125 128.671875 214.539062 128.585938 214.597656 128.539062 C 214.660156 128.488281 214.746094 128.5 214.792969 128.558594 L 219.1875 133.945312 L 222.238281 127.386719 C 222.269531 127.316406 222.351562 127.285156 222.421875 127.320312 C 222.492188 127.351562 222.519531 127.433594 222.488281 127.503906 L 219.34375 134.261719 C 219.324219 134.304688 219.28125 134.335938 219.234375 134.339844 C 219.230469 134.339844 219.222656 134.34375 219.21875 134.34375 " fill-opacity="1" fill-rule="nonzero"/><path fill="#142c39" d="M 228.992188 138.820312 L 206.53125 138.820312 C 206.457031 138.820312 206.394531 138.757812 206.394531 138.683594 C 206.394531 138.605469 206.457031 138.542969 206.53125 138.542969 L 228.992188 138.542969 C 229.066406 138.542969 229.128906 138.605469 229.128906 138.683594 C 229.128906 138.757812 229.066406 138.820312 228.992188 138.820312 " fill-opacity="1" fill-rule="nonzero"/><path fill="#142c39" d="M 228.992188 141.496094 L 206.53125 141.496094 C 206.457031 141.496094 206.394531 141.433594 206.394531 141.359375 C 206.394531 141.28125 206.457031 141.21875 206.53125 141.21875 L 228.992188 141.21875 C 229.066406 141.21875 229.128906 141.28125 229.128906 141.359375 C 229.128906 141.433594 229.066406 141.496094 228.992188 141.496094 " fill-opacity="1" fill-rule="nonzero"/><path fill="#142c39" d="M 228.757812 144.171875 L 206.648438 144.171875 C 206.570312 144.171875 206.507812 144.109375 206.507812 144.035156 C 206.507812 143.957031 206.570312 143.894531 206.648438 143.894531 L 228.757812 143.894531 C 228.835938 143.894531 228.898438 143.957031 228.898438 144.035156 C 228.898438 144.109375 228.835938 144.171875 228.757812 144.171875 " fill-opacity="1" fill-rule="nonzero"/><path fill="#142c39" d="M 228.757812 146.847656 L 206.71875 146.847656 C 206.640625 146.847656 206.578125 146.785156 206.578125 146.710938 C 206.578125 146.632812 206.640625 146.570312 206.71875 146.570312 L 228.757812 146.570312 C 228.835938 146.570312 228.898438 146.632812 228.898438 146.710938 C 228.898438 146.785156 228.835938 146.847656 228.757812 146.847656 " fill-opacity="1" fill-rule="nonzero"/><path fill="#142c39" d="M 228.191406 149.710938 L 206.71875 149.710938 C 206.640625 149.710938 206.578125 149.648438 206.578125 149.574219 C 206.578125 149.496094 206.640625 149.433594 206.71875 149.433594 L 228.191406 149.433594 C 228.265625 149.433594 228.328125 149.496094 228.328125 149.574219 C 228.328125 149.648438 228.265625 149.710938 228.191406 149.710938 " fill-opacity="1" fill-rule="nonzero"/><path fill="#142c39" d="M 228.191406 152.386719 L 206.71875 152.386719 C 206.640625 152.386719 206.578125 152.324219 206.578125 152.25 C 206.578125 152.171875 206.640625 152.109375 206.71875 152.109375 L 228.191406 152.109375 C 228.265625 152.109375 228.328125 152.171875 228.328125 152.25 C 228.328125 152.324219 228.265625 152.386719 228.191406 152.386719 " fill-opacity="1" fill-rule="nonzero"/><path fill="#142c39" d="M 227.957031 155.0625 L 207.039062 155.0625 C 206.960938 155.0625 206.898438 155 206.898438 154.925781 C 206.898438 154.847656 206.960938 154.789062 207.039062 154.789062 L 227.957031 154.789062 C 228.035156 154.789062 228.09375 154.847656 228.09375 154.925781 C 228.09375 155 228.035156 155.0625 227.957031 155.0625 " fill-opacity="1" fill-rule="nonzero"/><path fill="#142c39" d="M 227.652344 157.738281 L 207.039062 157.738281 C 206.960938 157.738281 206.898438 157.675781 206.898438 157.601562 C 206.898438 157.523438 206.960938 157.464844 207.039062 157.464844 L 227.652344 157.464844 C 227.726562 157.464844 227.789062 157.523438 227.789062 157.601562 C 227.789062 157.675781 227.726562 157.738281 227.652344 157.738281 " fill-opacity="1" fill-rule="nonzero"/><path fill="#1a6aff" d="M 199.726562 216.492188 L 199.726562 114.8125 L 191.558594 108.757812 L 138.882812 135.390625 L 146.78125 163.273438 L 158.832031 160.035156 L 159.210938 216.492188 L 142.558594 216.492188 L 142.558594 242.769531 L 213.570312 242.769531 L 213.570312 216.492188 L 199.726562 216.492188 " fill-opacity="1" fill-rule="nonzero"/><path fill="#0958d6" d="M 230.460938 242.769531 L 213.570312 242.769531 L 213.570312 216.492188 L 230.460938 216.492188 L 230.460938 242.769531 " fill-opacity="1" fill-rule="nonzero"/><path fill="#0958d6" d="M 213.570312 216.492188 L 199.726562 216.492188 L 199.726562 114.8125 L 213.570312 114.8125 L 213.570312 216.492188 " fill-opacity="1" fill-rule="nonzero"/><path fill="#75c7fe" d="M 191.558594 108.757812 L 205.871094 108.757812 L 213.570312 114.8125 L 199.726562 114.8125 L 191.558594 108.757812 " fill-opacity="1" fill-rule="nonzero"/><path fill="#f7bfa3" d="M 210.480469 111.011719 L 211.226562 111.792969 C 211.734375 112.328125 211.851562 113.046875 211.480469 113.375 L 210.886719 113.902344 L 210.621094 114.140625 L 209.882812 114.796875 C 209.734375 114.929688 209.503906 114.914062 209.367188 114.765625 L 209.300781 114.6875 C 209.167969 114.539062 209.179688 114.308594 209.332031 114.171875 L 209.992188 113.585938 C 210.054688 113.527344 210.066406 113.429688 210.011719 113.363281 C 209.953125 113.289062 209.84375 113.28125 209.773438 113.34375 L 209.113281 113.929688 C 208.960938 114.0625 208.730469 114.050781 208.597656 113.898438 L 208.527344 113.824219 C 208.394531 113.671875 208.410156 113.441406 208.558594 113.308594 C 208.410156 113.441406 208.175781 113.429688 208.042969 113.277344 L 207.976562 113.203125 C 207.839844 113.050781 207.855469 112.820312 208.003906 112.6875 C 207.855469 112.820312 207.625 112.808594 207.488281 112.65625 L 207.421875 112.582031 C 207.285156 112.429688 207.300781 112.199219 207.449219 112.066406 L 208.355469 111.261719 L 208.453125 111.175781 L 209.023438 110.671875 C 209.367188 110.363281 210.007812 110.515625 210.480469 111.011719 " fill-opacity="1" fill-rule="nonzero"/><path fill="#ffffff" d="M 187.722656 186.46875 C 187.667969 186.46875 187.617188 186.433594 187.59375 186.382812 L 186.96875 184.867188 C 186.941406 184.796875 186.976562 184.714844 187.046875 184.6875 C 187.117188 184.65625 187.195312 184.691406 187.226562 184.761719 L 187.847656 186.277344 C 187.878906 186.347656 187.84375 186.429688 187.773438 186.457031 C 187.757812 186.464844 187.738281 186.46875 187.722656 186.46875 " fill-opacity="1" fill-rule="nonzero"/><path fill="#ffffff" d="M 190.167969 186.726562 C 190.121094 186.726562 190.074219 186.703125 190.046875 186.65625 C 190.011719 186.589844 190.035156 186.503906 190.101562 186.46875 L 191.535156 185.671875 C 191.601562 185.636719 191.6875 185.660156 191.722656 185.726562 C 191.761719 185.792969 191.738281 185.875 191.667969 185.914062 L 190.234375 186.710938 C 190.214844 186.722656 190.191406 186.726562 190.167969 186.726562 " fill-opacity="1" fill-rule="nonzero"/><path fill="#ffffff" d="M 189.402344 185.761719 C 189.394531 185.761719 189.386719 185.761719 189.378906 185.761719 C 189.304688 185.75 189.253906 185.679688 189.261719 185.605469 L 189.5 183.984375 C 189.511719 183.910156 189.582031 183.855469 189.65625 183.867188 C 189.730469 183.878906 189.785156 183.949219 189.773438 184.023438 L 189.539062 185.644531 C 189.527344 185.714844 189.46875 185.761719 189.402344 185.761719 " fill-opacity="1" fill-rule="nonzero"/><path fill="#f7bfa3" d="M 164.8125 85.632812 L 160.511719 86.339844 L 154.902344 75.578125 L 153.140625 76.625 L 155.636719 89.542969 C 156.015625 91.496094 157.777344 92.871094 159.769531 92.769531 L 165.550781 92.472656 C 167.921875 92.351562 169.464844 89.933594 168.574219 87.738281 C 167.96875 86.246094 166.40625 85.367188 164.8125 85.632812 " fill-opacity="1" fill-rule="nonzero"/><path fill="#f7bfa3" d="M 154.902344 75.578125 L 155.28125 73.050781 L 154.988281 73.050781 C 154.660156 73.050781 154.371094 73.277344 154.300781 73.601562 L 154.167969 74.214844 L 153.640625 72.675781 C 153.5625 72.449219 153.308594 72.339844 153.09375 72.445312 C 153.089844 72.445312 153.085938 72.445312 153.082031 72.449219 C 152.910156 72.53125 152.820312 72.726562 152.871094 72.910156 L 153.234375 74.261719 L 152.503906 72.996094 C 152.382812 72.78125 152.097656 72.726562 151.902344 72.875 C 151.757812 72.992188 151.707031 73.191406 151.78125 73.359375 L 152.363281 74.671875 L 151.597656 73.871094 C 151.445312 73.710938 151.183594 73.726562 151.050781 73.902344 C 150.949219 74.039062 150.960938 74.230469 151.074219 74.359375 L 153.140625 76.625 L 154.902344 75.578125 " fill-opacity="1" fill-rule="nonzero"/><path fill="#ed9d8d" d="M 153.371094 75.472656 C 153.300781 75.472656 153.242188 75.421875 153.234375 75.351562 C 153.1875 74.964844 153.257812 74.65625 153.449219 74.425781 C 153.726562 74.101562 154.144531 74.074219 154.160156 74.074219 C 154.234375 74.070312 154.300781 74.128906 154.304688 74.207031 C 154.308594 74.28125 154.25 74.347656 154.175781 74.351562 C 154.171875 74.351562 153.855469 74.371094 153.660156 74.605469 C 153.519531 74.773438 153.46875 75.011719 153.507812 75.316406 C 153.515625 75.390625 153.464844 75.460938 153.386719 75.46875 C 153.382812 75.46875 153.375 75.472656 153.371094 75.472656 " fill-opacity="1" fill-rule="nonzero"/><path fill="#dd9a34" d="M 165.332031 109.328125 L 149.738281 110.234375 C 146.972656 110.394531 144.738281 112.539062 144.46875 115.289062 L 142.6875 133.46875 L 151.007812 129.226562 L 155.019531 119.339844 L 165.332031 109.328125 " fill-opacity="1" fill-rule="nonzero"/><g clip-path="url(#id2)"><path fill="#142c39" d="M 172.710938 70.523438 C 173.140625 70.296875 173.617188 70.132812 174.097656 70.171875 C 175.1875 70.253906 175.957031 71.339844 176.160156 72.410156 C 176.363281 73.484375 176.167969 74.585938 176.183594 75.675781 C 176.191406 76.011719 176.21875 76.355469 176.359375 76.664062 C 176.59375 77.179688 177.125 77.523438 177.316406 78.058594 C 176.027344 78.183594 174.734375 78.316406 173.441406 78.441406 C 173.367188 78.449219 173.285156 78.457031 173.214844 78.433594 C 173.003906 78.359375 172.976562 78.074219 172.984375 77.851562 C 173.03125 76.457031 172.886719 75.046875 172.445312 73.71875 C 172.25 73.136719 171.703125 72.460938 171.609375 71.882812 C 171.511719 71.277344 172.238281 70.777344 172.710938 70.523438 " fill-opacity="1" fill-rule="nonzero"/></g><path fill="#ff757b" d="M 163.203125 94.089844 C 163.203125 93.257812 165.632812 85.554688 166.890625 85.554688 L 177.09375 85.554688 C 179.375 85.554688 180.996094 87.769531 180.304688 89.941406 L 175.777344 104.167969 L 167.484375 104.167969 L 165.449219 96.570312 C 164.1875 96.441406 163.203125 95.378906 163.203125 94.089844 " fill-opacity="1" fill-rule="nonzero"/><path fill="#f7bfa3" d="M 173.214844 74.21875 L 173.214844 76.925781 C 173.636719 76.894531 174.582031 76.910156 174.683594 77.683594 C 174.804688 78.589844 174.242188 79.621094 172.476562 79.453125 L 173.929688 85.5625 C 173.929688 85.5625 172.941406 87.574219 168.917969 87.988281 L 170.164062 81.996094 C 170.164062 81.996094 169.765625 82.144531 169.320312 82.148438 C 168.160156 82.164062 167.207031 81.203125 167.207031 80.039062 L 167.207031 74.582031 L 173.214844 74.21875 " fill-opacity="1" fill-rule="nonzero"/><path fill="#142c39" d="M 174.695312 74.28125 L 174.683594 77.683594 C 174.5 76.789062 173.214844 76.925781 173.214844 76.925781 C 171.386719 75.699219 170.953125 74.21875 170.953125 74.21875 C 169.082031 76.816406 167.207031 76.335938 167.207031 76.335938 L 167.207031 74.582031 C 167.207031 72.964844 168.519531 71.652344 170.136719 71.652344 L 172.066406 71.652344 C 173.519531 71.652344 174.699219 72.832031 174.695312 74.28125 " fill-opacity="1" fill-rule="nonzero"/><path fill="#ed9d8d" d="M 174.25 78.285156 C 174.175781 78.285156 174.117188 78.230469 174.109375 78.15625 C 174.070312 77.574219 173.550781 77.539062 173.492188 77.535156 C 173.417969 77.53125 173.359375 77.46875 173.359375 77.394531 C 173.363281 77.316406 173.425781 77.257812 173.5 77.261719 C 173.789062 77.269531 174.339844 77.460938 174.386719 78.136719 C 174.390625 78.214844 174.332031 78.28125 174.257812 78.285156 C 174.253906 78.285156 174.25 78.285156 174.25 78.285156 " fill-opacity="1" fill-rule="nonzero"/><path fill="#ed9d8d" d="M 173.261719 78.609375 C 173.25 78.609375 173.242188 78.609375 173.230469 78.609375 C 173.15625 78.59375 173.109375 78.519531 173.125 78.445312 C 173.261719 77.792969 173.910156 77.484375 173.9375 77.46875 C 174.003906 77.4375 174.085938 77.46875 174.121094 77.535156 C 174.152344 77.605469 174.121094 77.6875 174.054688 77.71875 C 174.042969 77.722656 173.5 77.988281 173.394531 78.5 C 173.382812 78.566406 173.324219 78.609375 173.261719 78.609375 " fill-opacity="1" fill-rule="nonzero"/><path fill="#142c39" d="M 170.691406 76.425781 C 170.671875 76.425781 170.652344 76.414062 170.636719 76.398438 C 170.277344 75.902344 169.8125 76.128906 169.792969 76.136719 C 169.761719 76.152344 169.71875 76.140625 169.699219 76.105469 C 169.683594 76.070312 169.699219 76.03125 169.730469 76.015625 C 169.738281 76.011719 170.320312 75.726562 170.75 76.316406 C 170.769531 76.347656 170.765625 76.390625 170.734375 76.410156 C 170.722656 76.417969 170.707031 76.425781 170.691406 76.425781 " fill-opacity="1" fill-rule="nonzero"/><path fill="#252f3f" d="M 167.566406 76.425781 C 167.554688 76.425781 167.539062 76.421875 167.527344 76.414062 C 167.496094 76.390625 167.488281 76.347656 167.511719 76.316406 C 167.515625 76.3125 167.886719 75.78125 168.546875 76.089844 C 168.582031 76.109375 168.597656 76.148438 168.582031 76.183594 C 168.5625 76.21875 168.523438 76.230469 168.488281 76.214844 C 167.9375 75.957031 167.636719 76.378906 167.625 76.394531 C 167.609375 76.414062 167.589844 76.425781 167.566406 76.425781 " fill-opacity="1" fill-rule="nonzero"/><path fill="#3d4f6b" d="M 167.332031 75.636719 C 167.257812 75.636719 167.199219 75.578125 167.195312 75.503906 C 167.191406 75.425781 167.25 75.363281 167.328125 75.359375 C 169.597656 75.261719 170.167969 73.417969 170.191406 73.339844 C 170.214844 73.269531 170.289062 73.226562 170.363281 73.246094 C 170.4375 73.269531 170.480469 73.347656 170.457031 73.417969 C 170.453125 73.441406 169.8125 75.53125 167.339844 75.636719 C 167.335938 75.636719 167.335938 75.636719 167.332031 75.636719 " fill-opacity="1" fill-rule="nonzero"/><path fill="#ed9d8d" d="M 170.164062 81.996094 C 170.164062 81.996094 171.160156 81.75 171.835938 80.761719 L 169.820312 83.648438 L 170.164062 81.996094 " fill-opacity="1" fill-rule="nonzero"/><path fill="#f4515e" d="M 165.449219 96.570312 C 165.449219 96.570312 167.523438 95.589844 169.113281 95.71875 C 170.699219 95.84375 171.070312 97.117188 173.5 96.570312 C 173.5 96.570312 172.417969 97.863281 169.148438 96.925781 C 168.199219 96.65625 166.496094 97.386719 165.882812 98.183594 L 165.449219 96.570312 " fill-opacity="1" fill-rule="nonzero"/><path fill="#142c39" d="M 157.488281 155.375 C 157.488281 155.375 154.59375 158.558594 153.890625 159.617188 C 153.105469 160.785156 152.308594 162.917969 152.308594 162.917969 L 161.300781 156.730469 L 160.042969 154.910156 L 157.488281 155.375 " fill-opacity="1" fill-rule="nonzero"/><path fill="#caefff" d="M 152.308594 162.917969 L 152.820312 163.660156 L 161.8125 157.472656 L 161.300781 156.730469 L 152.308594 162.917969 " fill-opacity="1" fill-rule="nonzero"/><path fill="#caefff" d="M 156.679688 157.949219 C 156.652344 157.949219 156.625 157.941406 156.601562 157.921875 C 156.09375 157.566406 155.449219 157.882812 155.441406 157.882812 C 155.375 157.917969 155.289062 157.890625 155.257812 157.824219 C 155.222656 157.753906 155.25 157.671875 155.316406 157.640625 C 155.347656 157.621094 156.113281 157.242188 156.757812 157.695312 C 156.820312 157.742188 156.835938 157.828125 156.792969 157.890625 C 156.765625 157.925781 156.722656 157.949219 156.679688 157.949219 " fill-opacity="1" fill-rule="nonzero"/><path fill="#caefff" d="M 154.261719 159.25 C 154.214844 159.25 154.171875 159.230469 154.144531 159.191406 C 154.101562 159.125 154.121094 159.042969 154.183594 159 C 154.21875 158.976562 155.070312 158.421875 155.847656 158.867188 C 155.914062 158.90625 155.933594 158.988281 155.898438 159.054688 C 155.859375 159.121094 155.773438 159.144531 155.707031 159.105469 C 155.078125 158.746094 154.34375 159.222656 154.335938 159.230469 C 154.3125 159.246094 154.285156 159.25 154.261719 159.25 " fill-opacity="1" fill-rule="nonzero"/><path fill="#3d4f6b" d="M 173.152344 75.890625 C 173.113281 75.890625 173.074219 75.875 173.046875 75.84375 C 172.667969 75.421875 172.304688 74.972656 171.972656 74.511719 C 171.84375 74.332031 171.710938 74.132812 171.648438 73.910156 C 171.628906 73.835938 171.671875 73.761719 171.746094 73.738281 C 171.820312 73.71875 171.894531 73.761719 171.914062 73.835938 C 171.964844 74.019531 172.078125 74.183594 172.199219 74.347656 C 172.523438 74.804688 172.878906 75.246094 173.253906 75.660156 C 173.304688 75.714844 173.300781 75.804688 173.242188 75.855469 C 173.214844 75.878906 173.183594 75.890625 173.152344 75.890625 " fill-opacity="1" fill-rule="nonzero"/><path fill="#142c39" d="M 168.402344 76.996094 C 168.402344 77.164062 168.308594 77.300781 168.195312 77.300781 C 168.085938 77.300781 167.992188 77.164062 167.992188 76.996094 C 167.992188 76.832031 168.085938 76.695312 168.195312 76.695312 C 168.308594 76.695312 168.402344 76.832031 168.402344 76.996094 " fill-opacity="1" fill-rule="nonzero"/><path fill="#142c39" d="M 170.238281 76.996094 C 170.238281 77.164062 170.144531 77.300781 170.03125 77.300781 C 169.917969 77.300781 169.828125 77.164062 169.828125 76.996094 C 169.828125 76.832031 169.917969 76.695312 170.03125 76.695312 C 170.144531 76.695312 170.238281 76.832031 170.238281 76.996094 " fill-opacity="1" fill-rule="nonzero"/><path fill="#ed9d8d" d="M 168.867188 78.285156 C 168.835938 78.285156 168.804688 78.28125 168.773438 78.277344 C 168.65625 78.257812 168.558594 78.195312 168.5 78.109375 C 168.417969 77.992188 168.414062 77.832031 168.484375 77.667969 C 168.507812 77.617188 168.535156 77.566406 168.5625 77.519531 C 168.589844 77.472656 168.617188 77.429688 168.632812 77.382812 C 168.695312 77.222656 168.65625 77.027344 168.617188 76.875 C 168.597656 76.800781 168.644531 76.726562 168.71875 76.707031 C 168.792969 76.6875 168.867188 76.730469 168.886719 76.804688 C 168.933594 77 168.980469 77.25 168.890625 77.484375 C 168.867188 77.546875 168.832031 77.605469 168.800781 77.660156 C 168.78125 77.699219 168.757812 77.738281 168.738281 77.777344 C 168.707031 77.847656 168.703125 77.917969 168.726562 77.957031 C 168.742188 77.980469 168.777344 77.996094 168.820312 78.003906 C 168.875 78.015625 168.9375 78.003906 168.984375 77.996094 C 169.058594 77.980469 169.132812 78.027344 169.148438 78.101562 C 169.164062 78.175781 169.113281 78.25 169.039062 78.265625 C 168.992188 78.273438 168.929688 78.285156 168.867188 78.285156 " fill-opacity="1" fill-rule="nonzero"/><path fill="#fdbc2a" d="M 175.777344 104.167969 L 178.449219 107.628906 C 180.691406 110.535156 179.925781 114.804688 176.734375 116.617188 C 176.664062 116.660156 176.589844 116.699219 176.519531 116.734375 L 160.273438 124.574219 L 160.929688 152.25 L 155.699219 153.449219 L 148.230469 121.546875 C 147.542969 118.605469 149.128906 115.605469 151.949219 114.511719 L 165.332031 109.328125 L 167.484375 104.167969 L 175.777344 104.167969 " fill-opacity="1" fill-rule="nonzero"/><path fill="#f7bfa3" d="M 157.488281 155.375 L 156.679688 153.226562 L 160.050781 152.449219 L 160.042969 154.910156 L 157.488281 155.375 " fill-opacity="1" fill-rule="nonzero"/><path fill="#142c39" d="M 139.507812 94.648438 L 140.917969 93.984375 L 148.207031 109.445312 L 165.320312 109.335938 L 165.332031 110.890625 L 147.222656 111.003906 L 139.507812 94.648438 " fill-opacity="1" fill-rule="nonzero"/><path fill="#ff757b" d="M 166.890625 85.554688 L 163.203125 85.226562 L 161.984375 93.363281 L 164.773438 93.011719 L 166.890625 85.554688 " fill-opacity="1" fill-rule="nonzero"/><path fill="#f7bfa3" d="M 175.367188 88.441406 L 168.726562 97.628906 L 159.0625 104.261719 L 160.546875 105.753906 L 171.691406 102.351562 L 180.253906 95.566406 C 182.660156 94.363281 183.410156 91.289062 181.828125 89.113281 C 180.304688 87.015625 177.292969 86.703125 175.367188 88.441406 " fill-opacity="1" fill-rule="nonzero"/><path fill="#f7bfa3" d="M 159.0625 104.261719 L 157.546875 105.25 L 155.664062 106.339844 C 155.664062 106.339844 155.9375 107.097656 156.414062 106.832031 C 156.707031 106.664062 157.179688 106.351562 157.496094 106.132812 L 156.46875 107.96875 L 156.820312 108.164062 C 157.011719 108.273438 157.257812 108.203125 157.367188 108.011719 L 157.492188 107.785156 L 157.476562 108.453125 L 157.867188 108.46875 C 158.085938 108.480469 158.269531 108.3125 158.28125 108.09375 L 158.328125 107.25 L 158.769531 106.429688 C 158.914062 106.386719 159.195312 106.378906 159.601562 106.367188 C 160.097656 106.351562 160.765625 105.71875 160.804688 105.660156 L 159.0625 104.261719 " fill-opacity="1" fill-rule="nonzero"/><path fill="#ff757b" d="M 177.265625 85.5625 C 177.265625 85.5625 185.601562 86.5625 182 97.628906 L 171.445312 92.777344 L 177.265625 85.5625 " fill-opacity="1" fill-rule="nonzero"/><path fill="#f4515e" d="M 171.445312 92.914062 C 171.414062 92.914062 171.386719 92.902344 171.359375 92.882812 C 171.300781 92.835938 171.289062 92.75 171.339844 92.6875 L 175.199219 87.902344 C 175.25 87.839844 175.335938 87.832031 175.394531 87.878906 C 175.453125 87.925781 175.464844 88.015625 175.417969 88.074219 L 171.554688 92.863281 C 171.527344 92.894531 171.488281 92.914062 171.445312 92.914062 " fill-opacity="1" fill-rule="nonzero"/><path fill="#ed9d8d" d="M 172.039062 93.046875 L 179.25 96.363281 L 177.078125 98.085938 Z M 172.039062 93.046875 " fill-opacity="1" fill-rule="nonzero"/><path fill="#ed9d8d" d="M 160.082031 88.429688 C 160.070312 88.429688 160.058594 88.425781 160.050781 88.425781 C 159.976562 88.410156 159.929688 88.335938 159.945312 88.261719 L 160.378906 86.3125 C 160.394531 86.234375 160.46875 86.1875 160.542969 86.207031 C 160.617188 86.222656 160.664062 86.296875 160.648438 86.371094 L 160.214844 88.320312 C 160.199219 88.382812 160.144531 88.429688 160.082031 88.429688 " fill-opacity="1" fill-rule="nonzero"/><path fill="#ffffff" d="M 170.097656 78.542969 C 170.097656 78.875 170.027344 79.28125 169.707031 79.472656 C 169.324219 79.699219 168.835938 79.371094 168.535156 79.101562 C 168.367188 78.953125 168.257812 78.824219 168.257812 78.824219 C 168.257812 78.824219 169.75 78.664062 170.042969 78.015625 C 170.042969 78.015625 170.097656 78.25 170.097656 78.542969 " fill-opacity="1" fill-rule="nonzero"/><path fill="#f4515e" d="M 170.097656 78.542969 C 170.097656 78.875 170.027344 79.28125 169.707031 79.472656 C 169.324219 79.699219 168.835938 79.371094 168.535156 79.101562 C 168.75 79.15625 169.246094 79.15625 170.097656 78.542969 " fill-opacity="1" fill-rule="nonzero"/><path fill="#dd9a34" d="M 157.433594 151.402344 C 157.371094 151.402344 157.316406 151.363281 157.300781 151.300781 C 156.992188 150.199219 149.761719 124.214844 152.296875 119.472656 C 153.570312 117.09375 159.160156 115.5625 164.089844 114.210938 C 166.976562 113.417969 169.46875 112.734375 170.484375 112.035156 C 173.128906 110.207031 171.917969 104.691406 171.902344 104.636719 C 171.886719 104.5625 171.933594 104.488281 172.007812 104.472656 C 172.082031 104.457031 172.15625 104.5 172.171875 104.574219 C 172.175781 104.589844 172.496094 106.019531 172.472656 107.664062 C 172.4375 109.867188 171.804688 111.457031 170.640625 112.261719 C 169.589844 112.988281 167.074219 113.679688 164.164062 114.476562 C 159.527344 115.746094 153.757812 117.328125 152.542969 119.601562 C 151.519531 121.515625 152.0625 127.582031 154.109375 137.152344 C 155.660156 144.402344 157.546875 151.160156 157.566406 151.226562 C 157.585938 151.300781 157.542969 151.378906 157.46875 151.398438 C 157.457031 151.402344 157.445312 151.402344 157.433594 151.402344 " fill-opacity="1" fill-rule="nonzero"/><path fill="#dd9a34" d="M 170.378906 108.242188 C 169.84375 108.242188 169.363281 108.117188 168.9375 107.867188 C 167.390625 106.949219 167.171875 104.714844 167.164062 104.617188 C 167.15625 104.542969 167.210938 104.476562 167.289062 104.46875 C 167.367188 104.464844 167.433594 104.519531 167.4375 104.59375 C 167.441406 104.617188 167.652344 106.785156 169.078125 107.628906 C 169.902344 108.117188 170.976562 108.078125 172.277344 107.511719 C 172.347656 107.480469 172.429688 107.511719 172.460938 107.582031 C 172.492188 107.652344 172.460938 107.734375 172.390625 107.765625 C 171.65625 108.082031 170.984375 108.242188 170.378906 108.242188 " fill-opacity="1" fill-rule="nonzero"/><path fill="#fdbc2a" d="M 236.097656 242.777344 C 237.210938 240.738281 237.78125 238.160156 237.820312 235.835938 C 237.824219 235.5 237.8125 235.148438 237.628906 234.867188 C 237.28125 234.332031 236.433594 234.335938 235.925781 234.722656 C 235.414062 235.109375 235.171875 235.746094 234.992188 236.359375 C 234.8125 236.972656 234.667969 237.617188 234.285156 238.128906 C 234.171875 234.449219 233.230469 230.796875 231.550781 227.519531 C 231.253906 226.933594 230.917969 226.347656 230.410156 225.933594 C 229.898438 225.515625 229.175781 225.300781 228.570312 225.554688 C 227.652344 225.9375 227.417969 227.105469 227.359375 228.09375 C 227.175781 231.390625 227.582031 234.722656 228.558594 237.878906 C 228.273438 237.355469 227.96875 236.808594 227.464844 236.484375 C 226.964844 236.160156 226.203125 236.15625 225.84375 236.636719 C 225.675781 236.863281 225.628906 237.15625 225.59375 237.4375 C 225.375 239.363281 225.613281 241.066406 226.550781 242.761719 L 236.097656 242.777344 " fill-opacity="1" fill-rule="nonzero"/><path fill="#fdbc2a" d="M 146.628906 242.769531 C 147.136719 241.40625 147.59375 239.90625 147.929688 238.492188 C 148.101562 237.777344 148.226562 236.949219 147.765625 236.378906 C 147.300781 235.808594 146.078125 236.066406 146.195312 236.792969 C 146.75 235.871094 147.054688 234.808594 147.089844 233.734375 C 147.121094 232.746094 145.976562 232.160156 145.175781 232.746094 C 144.59375 233.171875 144.089844 233.707031 143.714844 234.320312 C 143.824219 230.652344 143.664062 226.976562 143.242188 223.332031 C 143.128906 222.355469 142.988281 221.355469 142.3125 220.570312 C 142 220.207031 141.570312 219.949219 141.097656 219.882812 C 139.558594 219.675781 138.679688 221.40625 138.304688 222.851562 C 137.058594 227.648438 136.835938 232.707031 137.65625 237.597656 C 136.683594 237.210938 136.144531 236.109375 135.089844 235.832031 C 134.738281 235.738281 134.355469 235.773438 134.054688 235.980469 C 133.160156 236.597656 133.730469 237.964844 134.410156 238.792969 C 135.609375 240.257812 136.96875 241.59375 138.453125 242.769531 L 146.628906 242.769531 " fill-opacity="1" fill-rule="nonzero"/><g clip-path="url(#id3)"><path fill="#142c39" d="M 307.382812 243.046875 L 83.019531 243.046875 C 82.945312 243.046875 82.886719 242.984375 82.886719 242.90625 C 82.886719 242.832031 82.945312 242.769531 83.019531 242.769531 L 307.382812 242.769531 C 307.457031 242.769531 307.515625 242.832031 307.515625 242.90625 C 307.515625 242.984375 307.457031 243.046875 307.382812 243.046875 " fill-opacity="1" fill-rule="nonzero"/></g><path fill="#142c39" d="M 151.746094 240.230469 L 154.035156 213.320312 L 165.863281 213.320312 L 157.929688 240.230469 L 151.746094 240.230469 " fill-opacity="1" fill-rule="nonzero"/><path fill="#f7bfa3" d="M 165.066406 182.535156 L 186.015625 188.871094 L 189.15625 186.53125 L 188.3125 189.933594 C 188.070312 190.90625 187.1875 191.585938 186.1875 191.570312 L 163.46875 191.230469 L 165.066406 182.535156 " fill-opacity="1" fill-rule="nonzero"/><path fill="#ff757b" d="M 159.515625 180.804688 L 170.375 183.148438 L 169.148438 192.253906 L 160.746094 191.296875 L 159.515625 180.804688 " fill-opacity="1" fill-rule="nonzero"/><path fill="#ff757b" d="M 156.199219 179.746094 L 155.128906 179.40625 C 148.394531 177.277344 141.34375 181.636719 140.246094 188.601562 L 137.523438 205.890625 L 157.429688 212.675781 L 163.761719 194.949219 C 166.011719 188.65625 162.578125 181.761719 156.199219 179.746094 " fill-opacity="1" fill-rule="nonzero"/><path fill="#f7bfa3" d="M 159.289062 168.285156 L 158.398438 170.960938 C 157.996094 170.789062 157.058594 170.496094 156.699219 171.226562 C 156.285156 172.082031 156.308594 173.652344 158.34375 173.972656 L 155.636719 179.476562 C 155.636719 179.476562 155.53125 182.429688 160.066406 183.105469 L 160.375 177.339844 L 160.527344 177.390625 C 161.679688 177.769531 162.925781 177.148438 163.308594 175.996094 L 165.21875 170.25 L 159.289062 168.285156 " fill-opacity="1" fill-rule="nonzero"/><path fill="#ed9d8d" d="M 160.375 177.339844 C 160.375 177.339844 159.683594 177.347656 158.582031 175.320312 L 160.269531 179.292969 L 160.375 177.339844 " fill-opacity="1" fill-rule="nonzero"/><path fill="#ed9d8d" d="M 157.046875 171.988281 C 157.03125 171.988281 157.011719 171.984375 156.996094 171.976562 C 156.925781 171.949219 156.890625 171.867188 156.921875 171.796875 C 157.1875 171.148438 157.792969 171.136719 158.074219 171.222656 C 158.148438 171.246094 158.1875 171.320312 158.167969 171.394531 C 158.144531 171.46875 158.070312 171.507812 157.996094 171.488281 C 157.9375 171.46875 157.410156 171.335938 157.175781 171.902344 C 157.15625 171.957031 157.101562 171.988281 157.046875 171.988281 " fill-opacity="1" fill-rule="nonzero"/><path fill="#ed9d8d" d="M 157.917969 172.632812 C 157.910156 172.632812 157.90625 172.632812 157.902344 172.632812 C 157.824219 172.621094 157.769531 172.554688 157.78125 172.480469 C 157.84375 171.933594 157.390625 171.492188 157.382812 171.488281 C 157.328125 171.433594 157.328125 171.347656 157.378906 171.292969 C 157.433594 171.238281 157.519531 171.234375 157.574219 171.289062 C 157.597656 171.308594 158.132812 171.828125 158.054688 172.511719 C 158.046875 172.582031 157.988281 172.632812 157.917969 172.632812 " fill-opacity="1" fill-rule="nonzero"/><path fill="#142c39" d="M 162.742188 171.480469 C 162.714844 171.480469 162.6875 171.472656 162.664062 171.457031 C 162.65625 171.449219 162.308594 171.230469 161.765625 171.300781 C 161.691406 171.308594 161.621094 171.257812 161.609375 171.179688 C 161.601562 171.105469 161.652344 171.035156 161.730469 171.027344 C 162.382812 170.941406 162.800781 171.214844 162.820312 171.226562 C 162.882812 171.269531 162.898438 171.355469 162.855469 171.417969 C 162.832031 171.457031 162.785156 171.480469 162.742188 171.480469 " fill-opacity="1" fill-rule="nonzero"/><path fill="#142c39" d="M 164.546875 172.191406 C 164.511719 172.191406 164.476562 172.179688 164.449219 172.152344 C 164.1875 171.902344 163.800781 171.773438 163.796875 171.773438 C 163.726562 171.75 163.683594 171.671875 163.707031 171.597656 C 163.734375 171.527344 163.808594 171.484375 163.882812 171.511719 C 163.902344 171.515625 164.332031 171.65625 164.640625 171.957031 C 164.695312 172.007812 164.699219 172.09375 164.644531 172.148438 C 164.617188 172.179688 164.582031 172.191406 164.546875 172.191406 " fill-opacity="1" fill-rule="nonzero"/><path fill="#ff757b" d="M 155.722656 179.554688 C 155.722656 179.554688 142.230469 171.609375 137.199219 186.742188 L 146.386719 189.402344 L 155.722656 179.554688 " fill-opacity="1" fill-rule="nonzero"/><path fill="#ed9d8d" d="M 162.804688 173.578125 C 162.753906 173.578125 162.703125 173.570312 162.660156 173.546875 C 162.554688 173.492188 162.476562 173.382812 162.449219 173.253906 C 162.433594 173.179688 162.484375 173.109375 162.558594 173.09375 C 162.632812 173.078125 162.707031 173.128906 162.71875 173.203125 C 162.730469 173.246094 162.753906 173.285156 162.78125 173.300781 C 162.800781 173.308594 162.824219 173.300781 162.828125 173.296875 C 162.839844 173.28125 162.839844 173.230469 162.835938 173.191406 C 162.824219 172.714844 162.96875 172.246094 163.242188 171.863281 C 163.285156 171.800781 163.371094 171.789062 163.433594 171.832031 C 163.496094 171.878906 163.511719 171.964844 163.46875 172.023438 C 163.226562 172.359375 163.101562 172.769531 163.113281 173.175781 C 163.117188 173.261719 163.117188 173.367188 163.054688 173.457031 C 163 173.535156 162.902344 173.578125 162.804688 173.578125 " fill-opacity="1" fill-rule="nonzero"/><path fill="#142c39" d="M 161.480469 166.296875 L 163.796875 167.207031 L 165.277344 167.792969 C 167.164062 168.53125 166.589844 171.402344 164.570312 171.28125 C 164.433594 171.273438 164.296875 171.25 164.164062 171.214844 C 162.898438 170.863281 162.402344 170.378906 162.070312 169.933594 C 161.753906 169.519531 161.300781 169.222656 160.789062 169.121094 C 159.75 168.914062 159.117188 169.554688 158.4375 170.988281 C 158.4375 170.988281 157.242188 170.371094 156.722656 171.164062 L 158.046875 167.789062 C 158.582031 166.429688 160.121094 165.761719 161.480469 166.296875 " fill-opacity="1" fill-rule="nonzero"/><path fill="#3d4f6b" d="M 164.183594 170.816406 C 164.109375 170.816406 164.03125 170.808594 163.957031 170.792969 C 163.882812 170.78125 163.832031 170.707031 163.847656 170.632812 C 163.863281 170.558594 163.9375 170.507812 164.011719 170.523438 C 164.226562 170.566406 164.457031 170.515625 164.652344 170.460938 C 164.925781 170.382812 165.128906 170.296875 165.292969 170.183594 C 165.492188 170.046875 165.640625 169.871094 165.707031 169.683594 C 165.734375 169.613281 165.8125 169.574219 165.886719 169.601562 C 165.957031 169.628906 165.992188 169.707031 165.96875 169.777344 C 165.855469 170.089844 165.625 170.292969 165.449219 170.410156 C 165.257812 170.539062 165.027344 170.640625 164.726562 170.726562 C 164.5625 170.773438 164.378906 170.816406 164.183594 170.816406 " fill-opacity="1" fill-rule="nonzero"/><path fill="#3d4f6b" d="M 162.980469 170.140625 C 162.90625 170.140625 162.84375 170.078125 162.84375 170.003906 C 162.839844 169.925781 162.902344 169.863281 162.980469 169.863281 C 163.34375 169.855469 163.644531 169.8125 163.910156 169.71875 C 164.222656 169.613281 164.480469 169.441406 164.65625 169.222656 C 164.707031 169.164062 164.792969 169.152344 164.851562 169.199219 C 164.910156 169.25 164.921875 169.335938 164.871094 169.394531 C 164.660156 169.65625 164.359375 169.855469 164 169.980469 C 163.707031 170.082031 163.375 170.132812 162.984375 170.140625 C 162.984375 170.140625 162.980469 170.140625 162.980469 170.140625 " fill-opacity="1" fill-rule="nonzero"/><path fill="#f4515e" d="M 146.386719 189.539062 C 146.375 189.539062 146.359375 189.539062 146.34375 189.53125 C 146.273438 189.507812 146.234375 189.429688 146.257812 189.359375 L 148.34375 183.078125 C 148.371094 183.007812 148.449219 182.96875 148.519531 182.992188 C 148.59375 183.015625 148.632812 183.09375 148.609375 183.164062 L 146.519531 189.445312 C 146.5 189.503906 146.445312 189.539062 146.386719 189.539062 " fill-opacity="1" fill-rule="nonzero"/><path fill="#142c39" d="M 167.121094 200.355469 L 137.410156 205.933594 L 137.410156 209.75 C 137.410156 213.886719 141.082031 217.066406 145.183594 216.480469 L 160.332031 214.316406 L 160.332031 240.199219 L 166.515625 240.199219 L 172.875 206.035156 C 173.472656 202.652344 170.5 199.71875 167.121094 200.355469 " fill-opacity="1" fill-rule="nonzero"/><path fill="#fdbc2a" d="M 166.46875 240.230469 C 170.398438 240.808594 171.644531 242.527344 171.644531 242.527344 L 160.285156 242.527344 L 160.285156 240.230469 L 166.46875 240.230469 " fill-opacity="1" fill-rule="nonzero"/><g clip-path="url(#id4)"><path fill="#142c39" d="M 171.644531 242.527344 L 171.644531 243.386719 L 160.285156 243.386719 L 160.285156 242.527344 L 171.644531 242.527344 " fill-opacity="1" fill-rule="nonzero"/></g><path fill="#caefff" d="M 165.96875 238.9375 Z M 165.507812 240.050781 C 165.28125 240.050781 165.113281 240.183594 165.050781 240.3125 C 165.019531 240.375 165.027344 240.414062 165.03125 240.417969 C 165.039062 240.425781 165.117188 240.449219 165.296875 240.375 C 165.535156 240.277344 165.773438 240.078125 165.882812 239.878906 C 165.960938 239.746094 166.089844 239.226562 166.011719 238.996094 C 166.007812 238.980469 166 238.964844 165.988281 238.949219 C 165.984375 238.953125 165.984375 238.953125 165.980469 238.953125 C 165.746094 239.105469 165.511719 239.285156 165.519531 239.511719 C 165.527344 239.636719 165.558594 239.707031 165.671875 239.820312 C 165.714844 239.863281 165.722656 239.921875 165.699219 239.976562 C 165.675781 240.027344 165.621094 240.0625 165.5625 240.054688 C 165.542969 240.054688 165.527344 240.050781 165.507812 240.050781 Z M 165.082031 240.703125 C 164.957031 240.703125 164.878906 240.65625 164.832031 240.605469 C 164.734375 240.507812 164.726562 240.351562 164.800781 240.191406 C 164.886719 240.019531 165.066406 239.855469 165.3125 239.796875 C 165.273438 239.722656 165.25 239.632812 165.246094 239.523438 C 165.226562 239.109375 165.648438 238.839844 165.832031 238.722656 C 165.867188 238.699219 165.964844 238.636719 166.074219 238.679688 C 166.136719 238.707031 166.222656 238.765625 166.273438 238.90625 C 166.386719 239.234375 166.226562 239.839844 166.125 240.015625 C 165.980469 240.269531 165.699219 240.507812 165.402344 240.628906 C 165.273438 240.683594 165.167969 240.703125 165.082031 240.703125 " fill-opacity="1" fill-rule="nonzero"/><path fill="#fdbc2a" d="M 157.929688 240.230469 C 161.859375 240.808594 163.105469 242.527344 163.105469 242.527344 L 151.746094 242.527344 L 151.746094 240.230469 L 157.929688 240.230469 " fill-opacity="1" fill-rule="nonzero"/><g clip-path="url(#id5)"><path fill="#142c39" d="M 163.105469 242.527344 L 163.105469 243.386719 L 151.746094 243.386719 L 151.746094 242.527344 L 163.105469 242.527344 " fill-opacity="1" fill-rule="nonzero"/></g><path fill="#caefff" d="M 157.433594 238.9375 Z M 156.972656 240.050781 C 156.742188 240.050781 156.574219 240.183594 156.511719 240.3125 C 156.484375 240.375 156.488281 240.414062 156.492188 240.417969 C 156.503906 240.425781 156.578125 240.449219 156.761719 240.375 C 157 240.277344 157.234375 240.078125 157.347656 239.878906 C 157.421875 239.746094 157.554688 239.226562 157.472656 238.996094 C 157.46875 238.980469 157.460938 238.964844 157.449219 238.949219 C 157.449219 238.953125 157.445312 238.953125 157.441406 238.957031 C 157.210938 239.105469 156.972656 239.285156 156.984375 239.511719 C 156.988281 239.636719 157.023438 239.707031 157.132812 239.820312 C 157.175781 239.863281 157.1875 239.921875 157.160156 239.976562 C 157.136719 240.027344 157.082031 240.0625 157.023438 240.054688 C 157.007812 240.054688 156.988281 240.050781 156.972656 240.050781 Z M 156.542969 240.703125 C 156.417969 240.703125 156.339844 240.65625 156.292969 240.605469 C 156.199219 240.503906 156.1875 240.351562 156.265625 240.191406 C 156.347656 240.019531 156.527344 239.855469 156.773438 239.796875 C 156.734375 239.722656 156.710938 239.632812 156.707031 239.523438 C 156.6875 239.109375 157.113281 238.839844 157.292969 238.722656 C 157.332031 238.699219 157.429688 238.636719 157.535156 238.679688 C 157.601562 238.707031 157.6875 238.765625 157.734375 238.90625 C 157.847656 239.234375 157.6875 239.839844 157.585938 240.015625 C 157.445312 240.269531 157.160156 240.507812 156.867188 240.628906 C 156.734375 240.683594 156.628906 240.703125 156.542969 240.703125 " fill-opacity="1" fill-rule="nonzero"/><path fill="#caefff" d="M 137.824219 210.910156 C 137.769531 210.910156 137.71875 210.878906 137.699219 210.824219 C 137.667969 210.753906 137.699219 210.671875 137.773438 210.644531 C 141.613281 209.042969 140.9375 206.265625 140.910156 206.148438 C 140.890625 206.074219 140.933594 206 141.007812 205.980469 C 141.082031 205.960938 141.15625 206.003906 141.175781 206.078125 C 141.183594 206.109375 141.949219 209.203125 137.878906 210.898438 C 137.859375 210.90625 137.84375 210.910156 137.824219 210.910156 " fill-opacity="1" fill-rule="nonzero"/><path fill="#ed9d8d" d="M 188.105469 190.101562 C 188.089844 190.101562 188.074219 190.097656 188.058594 190.089844 C 187.984375 190.066406 187.949219 189.984375 187.976562 189.914062 C 188.226562 189.25 188.511719 188.203125 188.351562 187.949219 C 188.339844 187.921875 188.324219 187.917969 188.304688 187.914062 C 188.003906 187.878906 187.414062 188.980469 187.035156 190.007812 C 187.011719 190.082031 186.929688 190.117188 186.859375 190.09375 C 186.789062 190.066406 186.75 189.988281 186.777344 189.914062 C 187.570312 187.738281 188.167969 187.625 188.332031 187.640625 C 188.441406 187.652344 188.53125 187.707031 188.589844 187.800781 C 188.875 188.261719 188.34375 189.722656 188.234375 190.011719 C 188.214844 190.066406 188.164062 190.101562 188.105469 190.101562 " fill-opacity="1" fill-rule="nonzero"/><path fill="#142c39" d="M 164.175781 172.695312 C 164.105469 172.851562 163.957031 172.9375 163.851562 172.890625 C 163.746094 172.839844 163.71875 172.671875 163.789062 172.515625 C 163.863281 172.359375 164.007812 172.273438 164.117188 172.320312 C 164.222656 172.371094 164.25 172.539062 164.175781 172.695312 " fill-opacity="1" fill-rule="nonzero"/><path fill="#142c39" d="M 162.4375 172.125 C 162.363281 172.28125 162.21875 172.367188 162.109375 172.320312 C 162.003906 172.269531 161.976562 172.101562 162.050781 171.945312 C 162.121094 171.789062 162.269531 171.703125 162.375 171.75 C 162.480469 171.800781 162.507812 171.96875 162.4375 172.125 " fill-opacity="1" fill-rule="nonzero"/><path fill="#ffffff" d="M 161.164062 173.351562 C 161.09375 173.675781 161.078125 174.085938 161.347656 174.34375 C 161.667969 174.652344 162.214844 174.433594 162.570312 174.238281 C 162.765625 174.128906 162.902344 174.027344 162.902344 174.027344 C 162.902344 174.027344 161.476562 173.546875 161.335938 172.851562 C 161.335938 172.851562 161.230469 173.066406 161.164062 173.351562 " fill-opacity="1" fill-rule="nonzero"/><path fill="#f4515e" d="M 161.164062 173.351562 C 161.09375 173.675781 161.078125 174.085938 161.347656 174.34375 C 161.667969 174.652344 162.214844 174.433594 162.570312 174.238281 C 162.347656 174.242188 161.863281 174.136719 161.164062 173.351562 " fill-opacity="1" fill-rule="nonzero"/><path fill="#f4515e" d="M 164.4375 191.707031 C 164.433594 191.707031 164.429688 191.707031 164.429688 191.707031 C 164.351562 191.703125 164.292969 191.636719 164.300781 191.558594 C 164.300781 191.535156 164.476562 189.03125 163.695312 187.246094 C 163.664062 187.179688 163.695312 187.097656 163.765625 187.066406 C 163.835938 187.035156 163.917969 187.066406 163.949219 187.136719 C 164.757812 188.984375 164.582031 191.472656 164.574219 191.578125 C 164.570312 191.652344 164.507812 191.707031 164.4375 191.707031 " fill-opacity="1" fill-rule="nonzero"/><path fill="#caefff" d="M 171.566406 182.851562 L 170.050781 182.488281 L 166.066406 199.105469 L 149.289062 202.480469 L 149.597656 204.003906 L 167.347656 200.433594 L 167.351562 200.433594 L 171.566406 182.851562 " fill-opacity="1" fill-rule="nonzero"/><path fill="#caefff" d="M 163.46875 238.941406 C 163.464844 238.941406 163.460938 238.941406 163.457031 238.941406 C 163.382812 238.933594 163.324219 238.867188 163.332031 238.792969 L 166.117188 207.355469 C 166.152344 206.914062 165.992188 206.488281 165.671875 206.183594 C 165.355469 205.878906 164.921875 205.738281 164.480469 205.800781 L 140.417969 209.078125 C 140.339844 209.085938 140.269531 209.035156 140.261719 208.957031 C 140.25 208.882812 140.304688 208.8125 140.378906 208.800781 L 164.445312 205.527344 C 164.964844 205.453125 165.484375 205.621094 165.863281 205.984375 C 166.246094 206.347656 166.4375 206.855469 166.390625 207.378906 L 163.605469 238.816406 C 163.601562 238.886719 163.539062 238.941406 163.46875 238.941406 " fill-opacity="1" fill-rule="nonzero"/><path fill="#f7bfa3" d="M 137.917969 186.980469 L 136.167969 195.246094 C 135.898438 196.523438 136.675781 197.792969 137.9375 198.140625 L 151.894531 201.957031 L 153.246094 199.324219 L 143.316406 194.140625 L 145.4375 189.085938 L 137.917969 186.980469 " fill-opacity="1" fill-rule="nonzero"/><path fill="#ed9d8d" d="M 137.917969 186.980469 L 145.4375 189.085938 L 144.921875 190.488281 Z M 137.917969 186.980469 " fill-opacity="1" fill-rule="nonzero"/><path fill="#f7bfa3" d="M 151.636719 201.808594 C 151.636719 201.808594 152.628906 203.121094 154.160156 202.585938 L 154.707031 203.140625 C 155.03125 203.472656 155.578125 203.421875 155.835938 203.035156 L 155.996094 202.800781 L 154.691406 201.703125 L 156.070312 202.433594 C 156.441406 202.628906 156.898438 202.464844 157.058594 202.078125 L 157.273438 201.558594 L 155.273438 200.800781 L 156.609375 200.988281 C 157.125 201.058594 157.59375 200.679688 157.628906 200.160156 L 157.652344 199.847656 L 152.964844 199.324219 L 151.636719 201.808594 " fill-opacity="1" fill-rule="nonzero"/><path fill="#ed9d8d" d="M 143.316406 194.277344 C 143.304688 194.277344 143.292969 194.277344 143.28125 194.273438 L 139.753906 193.378906 C 139.679688 193.359375 139.632812 193.285156 139.652344 193.210938 C 139.671875 193.136719 139.746094 193.09375 139.820312 193.113281 L 143.351562 194.007812 C 143.425781 194.027344 143.46875 194.101562 143.449219 194.175781 C 143.433594 194.238281 143.378906 194.277344 143.316406 194.277344 " fill-opacity="1" fill-rule="nonzero"/><path fill="#f4515e" d="M 159.585938 186.398438 C 159.546875 186.398438 159.507812 186.382812 159.480469 186.347656 C 159.433594 186.289062 159.441406 186.203125 159.5 186.15625 L 160.339844 185.464844 C 160.398438 185.417969 160.488281 185.425781 160.535156 185.484375 C 160.582031 185.542969 160.574219 185.628906 160.515625 185.679688 L 159.675781 186.367188 C 159.648438 186.390625 159.617188 186.398438 159.585938 186.398438 " fill-opacity="1" fill-rule="nonzero"/><path fill="#f4515e" d="M 147.433594 179.777344 C 147.394531 179.777344 147.351562 179.757812 147.324219 179.726562 C 147.277344 179.667969 147.285156 179.578125 147.34375 179.53125 L 148.183594 178.84375 C 148.246094 178.792969 148.332031 178.800781 148.378906 178.859375 C 148.429688 178.921875 148.421875 179.007812 148.359375 179.054688 L 147.519531 179.746094 C 147.496094 179.765625 147.464844 179.777344 147.433594 179.777344 " fill-opacity="1" fill-rule="nonzero"/><path fill="#f4515e" d="M 154.339844 186.277344 C 154.300781 186.277344 154.261719 186.257812 154.234375 186.226562 C 154.183594 186.167969 154.191406 186.078125 154.25 186.03125 L 155.09375 185.339844 C 155.152344 185.292969 155.238281 185.300781 155.289062 185.359375 C 155.335938 185.417969 155.328125 185.507812 155.269531 185.554688 L 154.429688 186.246094 C 154.402344 186.265625 154.371094 186.277344 154.339844 186.277344 " fill-opacity="1" fill-rule="nonzero"/><path fill="#f4515e" d="M 152.40625 181.898438 C 152.363281 181.898438 152.324219 181.882812 152.296875 181.847656 C 152.25 181.789062 152.257812 181.703125 152.316406 181.65625 L 153.15625 180.964844 C 153.214844 180.917969 153.304688 180.925781 153.351562 180.984375 C 153.402344 181.042969 153.390625 181.128906 153.332031 181.179688 L 152.492188 181.867188 C 152.464844 181.890625 152.4375 181.898438 152.40625 181.898438 " fill-opacity="1" fill-rule="nonzero"/><path fill="#f4515e" d="M 145.621094 184.488281 C 145.578125 184.488281 145.539062 184.46875 145.511719 184.4375 C 145.464844 184.378906 145.472656 184.289062 145.53125 184.242188 L 146.375 183.550781 C 146.433594 183.503906 146.519531 183.511719 146.566406 183.570312 C 146.617188 183.628906 146.609375 183.71875 146.546875 183.765625 L 145.707031 184.457031 C 145.683594 184.476562 145.652344 184.488281 145.621094 184.488281 " fill-opacity="1" fill-rule="nonzero"/><path fill="#f4515e" d="M 145.621094 188.539062 C 145.578125 188.539062 145.539062 188.519531 145.511719 188.488281 C 145.464844 188.425781 145.472656 188.339844 145.53125 188.292969 L 146.375 187.601562 C 146.433594 187.554688 146.519531 187.5625 146.566406 187.621094 C 146.617188 187.679688 146.609375 187.769531 146.546875 187.816406 L 145.707031 188.507812 C 145.683594 188.527344 145.652344 188.539062 145.621094 188.539062 " fill-opacity="1" fill-rule="nonzero"/><path fill="#f4515e" d="M 139.535156 186.621094 C 139.496094 186.621094 139.457031 186.605469 139.429688 186.570312 C 139.378906 186.511719 139.386719 186.425781 139.445312 186.375 L 140.289062 185.6875 C 140.347656 185.636719 140.433594 185.644531 140.480469 185.707031 C 140.53125 185.765625 140.523438 185.851562 140.464844 185.898438 L 139.621094 186.589844 C 139.597656 186.609375 139.566406 186.621094 139.535156 186.621094 " fill-opacity="1" fill-rule="nonzero"/><path fill="#f4515e" d="M 160.007812 193.164062 C 159.96875 193.164062 159.929688 193.148438 159.902344 193.113281 C 159.851562 193.054688 159.859375 192.96875 159.917969 192.921875 L 160.761719 192.230469 C 160.820312 192.183594 160.90625 192.191406 160.957031 192.25 C 161.003906 192.308594 160.996094 192.394531 160.9375 192.445312 L 160.09375 193.132812 C 160.070312 193.15625 160.039062 193.164062 160.007812 193.164062 " fill-opacity="1" fill-rule="nonzero"/><path fill="#f4515e" d="M 164.039062 183.917969 C 163.996094 183.917969 163.957031 183.902344 163.929688 183.867188 C 163.882812 183.808594 163.890625 183.722656 163.949219 183.675781 L 164.789062 182.984375 C 164.847656 182.933594 164.9375 182.945312 164.984375 183.003906 C 165.03125 183.0625 165.023438 183.148438 164.964844 183.199219 L 164.125 183.886719 C 164.097656 183.90625 164.066406 183.917969 164.039062 183.917969 " fill-opacity="1" fill-rule="nonzero"/><path fill="#f4515e" d="M 167.277344 186.03125 C 167.238281 186.03125 167.199219 186.015625 167.171875 185.984375 C 167.121094 185.921875 167.128906 185.835938 167.1875 185.789062 L 168.03125 185.097656 C 168.089844 185.050781 168.175781 185.058594 168.226562 185.117188 C 168.273438 185.175781 168.265625 185.261719 168.207031 185.3125 L 167.363281 186 C 167.339844 186.023438 167.308594 186.03125 167.277344 186.03125 " fill-opacity="1" fill-rule="nonzero"/><path fill="#f4515e" d="M 166.007812 190.554688 C 165.964844 190.554688 165.925781 190.535156 165.898438 190.503906 C 165.851562 190.445312 165.859375 190.355469 165.917969 190.308594 L 166.761719 189.621094 C 166.820312 189.570312 166.90625 189.578125 166.953125 189.636719 C 167.003906 189.699219 166.996094 189.785156 166.9375 189.832031 L 166.09375 190.523438 C 166.070312 190.542969 166.039062 190.554688 166.007812 190.554688 " fill-opacity="1" fill-rule="nonzero"/><path fill="#f4515e" d="M 158.160156 198.464844 C 158.121094 198.464844 158.078125 198.445312 158.050781 198.414062 C 158.003906 198.355469 158.011719 198.265625 158.070312 198.21875 L 158.914062 197.527344 C 158.972656 197.480469 159.058594 197.488281 159.105469 197.546875 C 159.15625 197.605469 159.148438 197.695312 159.089844 197.742188 L 158.246094 198.433594 C 158.222656 198.453125 158.191406 198.464844 158.160156 198.464844 " fill-opacity="1" fill-rule="nonzero"/><path fill="#f4515e" d="M 156.300781 189.863281 C 156.261719 189.863281 156.222656 189.847656 156.195312 189.8125 C 156.144531 189.753906 156.152344 189.667969 156.214844 189.621094 L 157.054688 188.929688 C 157.113281 188.882812 157.199219 188.890625 157.25 188.949219 C 157.296875 189.007812 157.289062 189.09375 157.230469 189.144531 L 156.386719 189.832031 C 156.363281 189.855469 156.332031 189.863281 156.300781 189.863281 " fill-opacity="1" fill-rule="nonzero"/><path fill="#f4515e" d="M 155.214844 194.949219 C 155.175781 194.949219 155.136719 194.933594 155.109375 194.902344 C 155.0625 194.839844 155.070312 194.753906 155.128906 194.707031 L 155.96875 194.015625 C 156.027344 193.96875 156.117188 193.976562 156.164062 194.035156 C 156.210938 194.09375 156.203125 194.183594 156.144531 194.230469 L 155.304688 194.917969 C 155.277344 194.941406 155.246094 194.949219 155.214844 194.949219 " fill-opacity="1" fill-rule="nonzero"/><path fill="#f4515e" d="M 150.289062 192.050781 C 150.25 192.050781 150.210938 192.035156 150.183594 192 C 150.132812 191.941406 150.140625 191.855469 150.203125 191.808594 L 151.042969 191.117188 C 151.101562 191.070312 151.1875 191.078125 151.238281 191.136719 C 151.285156 191.195312 151.277344 191.28125 151.21875 191.332031 L 150.375 192.019531 C 150.351562 192.042969 150.320312 192.050781 150.289062 192.050781 " fill-opacity="1" fill-rule="nonzero"/><path fill="#f4515e" d="M 139.976562 201.097656 C 139.9375 201.097656 139.898438 201.078125 139.871094 201.046875 C 139.824219 200.988281 139.832031 200.898438 139.890625 200.851562 L 140.730469 200.160156 C 140.789062 200.113281 140.878906 200.121094 140.925781 200.179688 C 140.972656 200.238281 140.964844 200.328125 140.90625 200.375 L 140.066406 201.066406 C 140.039062 201.085938 140.007812 201.097656 139.976562 201.097656 " fill-opacity="1" fill-rule="nonzero"/><path fill="#f4515e" d="M 150.148438 196.597656 C 150.109375 196.597656 150.070312 196.582031 150.042969 196.546875 C 149.992188 196.488281 150 196.402344 150.058594 196.355469 L 150.902344 195.664062 C 150.960938 195.617188 151.046875 195.625 151.097656 195.683594 C 151.144531 195.742188 151.136719 195.828125 151.078125 195.878906 L 150.234375 196.566406 C 150.210938 196.589844 150.179688 196.597656 150.148438 196.597656 " fill-opacity="1" fill-rule="nonzero"/><path fill="#f4515e" d="M 141.257812 204.285156 C 141.21875 204.285156 141.175781 204.269531 141.148438 204.234375 C 141.101562 204.175781 141.109375 204.089844 141.167969 204.042969 L 142.011719 203.351562 C 142.070312 203.300781 142.15625 203.3125 142.203125 203.371094 C 142.253906 203.429688 142.246094 203.515625 142.1875 203.566406 L 141.34375 204.253906 C 141.320312 204.273438 141.289062 204.285156 141.257812 204.285156 " fill-opacity="1" fill-rule="nonzero"/><path fill="#f4515e" d="M 147.011719 202.640625 C 146.972656 202.640625 146.933594 202.625 146.90625 202.589844 C 146.855469 202.53125 146.863281 202.445312 146.925781 202.394531 L 147.765625 201.707031 C 147.824219 201.65625 147.910156 201.667969 147.960938 201.726562 C 148.007812 201.785156 148 201.871094 147.941406 201.917969 L 147.101562 202.609375 C 147.074219 202.628906 147.042969 202.640625 147.011719 202.640625 " fill-opacity="1" fill-rule="nonzero"/><path fill="#f4515e" d="M 149.871094 187.59375 C 149.828125 187.59375 149.789062 187.574219 149.761719 187.542969 C 149.714844 187.484375 149.722656 187.394531 149.78125 187.347656 L 150.621094 186.65625 C 150.679688 186.609375 150.769531 186.617188 150.816406 186.675781 C 150.863281 186.734375 150.855469 186.820312 150.796875 186.871094 L 149.957031 187.558594 C 149.929688 187.582031 149.898438 187.59375 149.871094 187.59375 " fill-opacity="1" fill-rule="nonzero"/><path fill="#f4515e" d="M 144.777344 193.382812 C 144.738281 193.382812 144.699219 193.367188 144.671875 193.332031 C 144.625 193.273438 144.632812 193.1875 144.691406 193.140625 L 145.53125 192.449219 C 145.589844 192.402344 145.679688 192.410156 145.726562 192.46875 C 145.773438 192.527344 145.765625 192.613281 145.707031 192.664062 L 144.867188 193.351562 C 144.839844 193.375 144.808594 193.382812 144.777344 193.382812 " fill-opacity="1" fill-rule="nonzero"/><path fill="#f4515e" d="M 141.257812 182.046875 C 141.21875 182.046875 141.175781 182.03125 141.148438 181.996094 C 141.101562 181.9375 141.109375 181.851562 141.167969 181.804688 L 142.011719 181.113281 C 142.070312 181.066406 142.15625 181.074219 142.203125 181.132812 C 142.253906 181.191406 142.246094 181.277344 142.1875 181.328125 L 141.34375 182.015625 C 141.320312 182.039062 141.289062 182.046875 141.257812 182.046875 " fill-opacity="1" fill-rule="nonzero"/><path fill="#caefff" d="M 204.296875 206.097656 L 197.066406 197.398438 C 196.589844 196.820312 196.667969 195.964844 197.246094 195.484375 L 202.617188 191.039062 C 203.195312 190.558594 204.054688 190.636719 204.535156 191.214844 L 211.761719 199.914062 C 212.242188 200.492188 212.160156 201.351562 211.582031 201.828125 L 206.210938 206.277344 C 205.632812 206.757812 204.777344 206.675781 204.296875 206.097656 " fill-opacity="1" fill-rule="nonzero"/><path fill="#142c39" d="M 203.660156 204.5 L 197.703125 197.332031 C 197.222656 196.753906 197.304688 195.898438 197.882812 195.417969 L 202.433594 191.648438 C 203.011719 191.167969 203.871094 191.25 204.351562 191.828125 L 210.304688 198.996094 C 210.785156 199.570312 210.707031 200.429688 210.125 200.910156 L 205.574219 204.675781 C 204.996094 205.15625 204.136719 205.078125 203.660156 204.5 " fill-opacity="1" fill-rule="nonzero"/><path fill="#f7bfa3" d="M 198.128906 199.488281 L 197.894531 198.746094 C 197.734375 198.242188 197.886719 197.742188 198.230469 197.644531 L 198.78125 197.492188 L 199.027344 197.421875 L 199.710938 197.234375 C 199.851562 197.195312 199.996094 197.277344 200.035156 197.417969 L 200.054688 197.488281 C 200.09375 197.625 200.011719 197.769531 199.871094 197.808594 L 199.257812 197.980469 C 199.199219 197.996094 199.164062 198.058594 199.175781 198.117188 C 199.1875 198.183594 199.257812 198.222656 199.320312 198.207031 L 199.933594 198.035156 C 200.074219 197.996094 200.21875 198.078125 200.257812 198.21875 L 200.277344 198.289062 C 200.316406 198.429688 200.234375 198.574219 200.097656 198.613281 C 200.234375 198.574219 200.378906 198.65625 200.417969 198.792969 L 200.4375 198.867188 C 200.476562 199.003906 200.394531 199.148438 200.257812 199.1875 C 200.394531 199.148438 200.542969 199.230469 200.578125 199.371094 L 200.597656 199.441406 C 200.640625 199.582031 200.558594 199.726562 200.417969 199.765625 L 199.578125 199.996094 L 199.488281 200.023438 L 198.960938 200.167969 C 198.640625 200.257812 198.273438 199.957031 198.128906 199.488281 " fill-opacity="1" fill-rule="nonzero"/><path fill="#f7bfa3" d="M 203.007812 230.308594 L 208.378906 239.207031 L 203.007812 240.96875 L 208.722656 241.207031 L 210.75 240.277344 L 209.855469 230.175781 L 203.007812 230.308594 " fill-opacity="1" fill-rule="nonzero"/><g clip-path="url(#id6)"><path fill="#caefff" d="M 199.828125 242.484375 L 199.828125 243.386719 L 210.75 243.386719 L 210.75 242.484375 L 199.828125 242.484375 " fill-opacity="1" fill-rule="nonzero"/></g><path fill="#142c39" d="M 210.75 240.277344 C 210.398438 240.117188 209.992188 240.140625 209.660156 240.335938 C 209.148438 240.628906 208.484375 240.925781 208.277344 240.621094 C 208.015625 240.234375 208.617188 239.703125 208.9375 239.460938 L 208.378906 239.207031 C 208.378906 239.207031 204.191406 240.191406 203.007812 240.664062 C 201.695312 241.183594 199.828125 242.484375 199.828125 242.484375 L 210.75 242.484375 L 210.75 240.277344 " fill-opacity="1" fill-rule="nonzero"/><path fill="#75c7fe" d="M 207.511719 214.394531 L 212.296875 234.382812 L 203.152344 234.382812 L 197.214844 213.320312 L 207.511719 214.394531 " fill-opacity="1" fill-rule="nonzero"/><path fill="#dd9a34" d="M 211.832031 177.171875 L 209.449219 192.035156 L 216.472656 193.105469 Z M 211.832031 177.171875 " fill-opacity="1" fill-rule="nonzero"/><path fill="#f7bfa3" d="M 193.425781 229.695312 L 196.027344 239.207031 L 190.652344 240.96875 L 196.367188 241.207031 L 198.394531 240.277344 L 198.898438 229.585938 L 193.425781 229.695312 " fill-opacity="1" fill-rule="nonzero"/><path fill="#ff757b" d="M 219.949219 187.167969 L 213.300781 187.867188 C 211.867188 188.019531 210.613281 188.898438 209.980469 190.191406 L 207.980469 194.289062 C 207.980469 194.289062 206.945312 196.285156 207.035156 197.109375 C 207.171875 198.394531 208.261719 199.347656 209.527344 199.339844 L 212.351562 206.6875 L 220.601562 205.816406 L 223.605469 191.1875 C 224.0625 188.957031 222.214844 186.925781 219.949219 187.167969 " fill-opacity="1" fill-rule="nonzero"/><g clip-path="url(#id7)"><path fill="#caefff" d="M 187.472656 242.484375 L 187.472656 243.386719 L 198.394531 243.386719 L 198.394531 242.484375 L 187.472656 242.484375 " fill-opacity="1" fill-rule="nonzero"/></g><path fill="#142c39" d="M 198.394531 240.277344 C 198.042969 240.117188 197.640625 240.140625 197.308594 240.335938 C 196.796875 240.628906 196.132812 240.925781 195.921875 240.621094 C 195.660156 240.234375 196.261719 239.703125 196.585938 239.460938 L 196.027344 239.207031 C 196.027344 239.207031 191.835938 240.191406 190.652344 240.664062 C 189.34375 241.183594 187.472656 242.484375 187.472656 242.484375 L 198.394531 242.484375 L 198.394531 240.277344 " fill-opacity="1" fill-rule="nonzero"/><path fill="#f7bfa3" d="M 217.90625 176.796875 L 217.476562 179.46875 C 217.894531 179.503906 218.828125 179.667969 218.804688 180.449219 C 218.78125 181.363281 218.0625 182.292969 216.34375 181.847656 L 216.8125 188.109375 C 216.8125 188.109375 215.515625 189.941406 211.476562 189.710938 L 213.65625 183.996094 C 213.65625 183.996094 213.242188 184.074219 212.800781 184.011719 C 211.652344 183.84375 210.863281 182.746094 211.050781 181.59375 L 211.972656 175.847656 L 217.90625 176.796875 " fill-opacity="1" fill-rule="nonzero"/><path fill="#ed9d8d" d="M 213.65625 183.996094 C 213.65625 183.996094 214.476562 183.894531 215.503906 183.039062 L 212.820312 186.191406 L 213.65625 183.996094 " fill-opacity="1" fill-rule="nonzero"/><path fill="#142c39" d="M 214.554688 178.171875 C 214.53125 178.171875 214.507812 178.160156 214.496094 178.140625 C 214.175781 177.617188 213.695312 177.804688 213.675781 177.816406 C 213.640625 177.828125 213.601562 177.8125 213.585938 177.777344 C 213.570312 177.742188 213.589844 177.703125 213.621094 177.6875 C 213.628906 177.683594 214.234375 177.445312 214.613281 178.066406 C 214.632812 178.101562 214.625 178.144531 214.589844 178.160156 C 214.578125 178.167969 214.566406 178.171875 214.554688 178.171875 " fill-opacity="1" fill-rule="nonzero"/><path fill="#142c39" d="M 211.4375 177.925781 C 211.421875 177.925781 211.40625 177.921875 211.394531 177.910156 C 211.363281 177.886719 211.359375 177.84375 211.386719 177.816406 C 211.390625 177.808594 211.804688 177.308594 212.4375 177.671875 C 212.46875 177.691406 212.480469 177.730469 212.460938 177.765625 C 212.441406 177.796875 212.402344 177.808594 212.367188 177.792969 C 211.835938 177.488281 211.507812 177.882812 211.492188 177.902344 C 211.476562 177.917969 211.457031 177.925781 211.4375 177.925781 " fill-opacity="1" fill-rule="nonzero"/><path fill="#142c39" d="M 214.050781 178.707031 C 214.035156 178.875 213.914062 178.976562 213.800781 178.96875 C 213.6875 178.957031 213.628906 178.839844 213.640625 178.675781 C 213.652344 178.507812 213.753906 178.382812 213.867188 178.390625 C 213.980469 178.398438 214.0625 178.542969 214.050781 178.707031 " fill-opacity="1" fill-rule="nonzero"/><path fill="#142c39" d="M 212.042969 178.457031 C 212.03125 178.621094 211.90625 178.726562 211.792969 178.71875 C 211.679688 178.707031 211.621094 178.589844 211.632812 178.425781 C 211.648438 178.257812 211.75 178.132812 211.863281 178.140625 C 211.976562 178.148438 212.054688 178.292969 212.042969 178.457031 " fill-opacity="1" fill-rule="nonzero"/><path fill="#f7bfa3" d="M 190.097656 188.910156 L 189.238281 186.71875 L 188.386719 189.933594 C 188.292969 190.285156 188.464844 190.652344 188.792969 190.808594 L 194.265625 191.019531 L 190.097656 188.910156 " fill-opacity="1" fill-rule="nonzero"/><path fill="#ed9d8d" d="M 212.636719 179.886719 C 212.589844 179.886719 212.539062 179.882812 212.488281 179.867188 C 212.375 179.839844 212.28125 179.769531 212.230469 179.679688 C 212.160156 179.554688 212.167969 179.394531 212.25 179.238281 C 212.277344 179.1875 212.308594 179.144531 212.339844 179.097656 C 212.371094 179.050781 212.398438 179.007812 212.421875 178.964844 C 212.496094 178.8125 212.472656 178.613281 212.445312 178.457031 C 212.433594 178.382812 212.484375 178.308594 212.558594 178.296875 C 212.632812 178.285156 212.707031 178.335938 212.71875 178.410156 C 212.753906 178.605469 212.777344 178.859375 212.671875 179.085938 C 212.640625 179.148438 212.601562 179.203125 212.566406 179.253906 C 212.542969 179.292969 212.515625 179.328125 212.496094 179.367188 C 212.457031 179.4375 212.449219 179.507812 212.46875 179.542969 C 212.484375 179.570312 212.515625 179.589844 212.554688 179.601562 C 212.597656 179.609375 212.648438 179.613281 212.722656 179.601562 C 212.800781 179.59375 212.867188 179.648438 212.875 179.722656 C 212.886719 179.800781 212.832031 179.867188 212.757812 179.878906 C 212.722656 179.882812 212.679688 179.886719 212.636719 179.886719 " fill-opacity="1" fill-rule="nonzero"/><path fill="#ffffff" d="M 213.179688 180.925781 C 212.519531 181.164062 211.9375 180.511719 211.9375 180.511719 C 211.9375 180.511719 213.4375 180.453125 213.773438 179.824219 C 213.773438 179.824219 213.917969 180.65625 213.179688 180.925781 " fill-opacity="1" fill-rule="nonzero"/><path fill="#ff757b" d="M 190.097656 188.910156 L 217.703125 185.207031 L 222.574219 188.152344 C 224.132812 190.082031 222.410156 193.917969 219.933594 193.742188 L 190.167969 190.863281 L 190.097656 188.910156 " fill-opacity="1" fill-rule="nonzero"/><path fill="#fdbc2a" d="M 215.273438 173.777344 L 217.257812 174.09375 C 218.316406 174.265625 219.144531 174.976562 219.515625 175.902344 L 219.519531 175.902344 C 219.519531 175.902344 219.519531 175.910156 219.523438 175.917969 C 219.632812 176.203125 221.558594 181.78125 222.5625 184.277344 C 224.503906 189.101562 222.542969 193.972656 222.542969 193.972656 L 212.246094 192.480469 C 212.246094 192.480469 213.503906 191.71875 215.292969 186.585938 C 216.769531 182.351562 216.066406 178.199219 215.773438 176.875 C 215.691406 176.601562 215.667969 176.4375 215.667969 176.4375 C 213.410156 178.707031 211.636719 177.9375 211.636719 177.9375 L 211.914062 176.203125 C 212.171875 174.609375 213.671875 173.519531 215.273438 173.777344 " fill-opacity="1" fill-rule="nonzero"/><path fill="#dd9a34" d="M 218.179688 191.789062 C 218.136719 191.789062 218.09375 191.769531 218.070312 191.734375 C 218.023438 191.671875 218.035156 191.585938 218.09375 191.539062 C 219.273438 190.648438 219.964844 189.007812 219.949219 187.152344 C 219.933594 185.632812 219.5 184.128906 219.078125 182.671875 L 218.953125 182.234375 C 218.496094 180.628906 218.0625 178.914062 218.261719 177.191406 C 218.269531 177.117188 218.335938 177.0625 218.414062 177.074219 C 218.488281 177.082031 218.542969 177.148438 218.535156 177.226562 C 218.34375 178.894531 218.765625 180.578125 219.21875 182.160156 L 219.34375 182.59375 C 219.769531 184.070312 220.210938 185.589844 220.226562 187.148438 C 220.242188 189.09375 219.507812 190.816406 218.261719 191.761719 C 218.238281 191.78125 218.207031 191.789062 218.179688 191.789062 " fill-opacity="1" fill-rule="nonzero"/><path fill="#dd9a34" d="M 216.222656 191.21875 C 216.183594 191.21875 216.144531 191.203125 216.117188 191.171875 C 216.066406 191.113281 216.074219 191.027344 216.128906 190.976562 C 216.804688 190.394531 217.230469 189.464844 217.328125 188.359375 C 217.417969 187.355469 217.246094 186.339844 217.078125 185.355469 C 217.0625 185.28125 217.113281 185.210938 217.1875 185.199219 C 217.265625 185.183594 217.335938 185.234375 217.347656 185.3125 C 217.519531 186.308594 217.695312 187.34375 217.605469 188.382812 C 217.5 189.5625 217.039062 190.558594 216.3125 191.183594 C 216.285156 191.207031 216.253906 191.21875 216.222656 191.21875 " fill-opacity="1" fill-rule="nonzero"/><path fill="#caefff" d="M 220.675781 205.8125 L 221.433594 210.234375 C 222.042969 213.785156 219.222656 216.988281 215.617188 216.84375 L 202.570312 216.316406 L 201.1875 234.382812 L 190.914062 233.746094 L 192.996094 206.742188 C 193.136719 204.929688 194.765625 203.601562 196.570312 203.828125 L 212.382812 205.8125 L 220.675781 205.8125 " fill-opacity="1" fill-rule="nonzero"/><path fill="#75c7fe" d="M 195.378906 233.757812 C 195.375 233.757812 195.371094 233.757812 195.367188 233.753906 C 195.289062 233.75 195.234375 233.679688 195.242188 233.605469 L 197.363281 212.308594 C 197.453125 211.398438 197.933594 210.570312 198.675781 210.035156 C 199.417969 209.5 200.359375 209.308594 201.25 209.507812 C 204.277344 210.191406 208.738281 211.066406 212.796875 211.367188 C 214.859375 211.519531 216.257812 211.105469 216.949219 210.136719 C 218.039062 208.613281 217.015625 206.191406 217.007812 206.167969 C 216.976562 206.097656 217.007812 206.019531 217.078125 205.988281 C 217.148438 205.957031 217.230469 205.988281 217.261719 206.058594 C 217.304688 206.164062 218.351562 208.648438 217.175781 210.300781 C 216.421875 211.351562 214.941406 211.804688 212.773438 211.640625 C 208.699219 211.339844 204.226562 210.460938 201.191406 209.777344 C 200.375 209.59375 199.515625 209.769531 198.835938 210.257812 C 198.160156 210.746094 197.722656 211.503906 197.640625 212.335938 L 195.515625 233.632812 C 195.511719 233.703125 195.449219 233.757812 195.378906 233.757812 " fill-opacity="1" fill-rule="nonzero"/><path fill="#ed9d8d" d="M 188.449219 189.828125 C 188.4375 189.828125 188.425781 189.828125 188.414062 189.824219 C 188.339844 189.804688 188.296875 189.726562 188.316406 189.652344 L 189 187.074219 C 189.019531 187 189.09375 186.957031 189.167969 186.976562 C 189.242188 186.996094 189.285156 187.070312 189.265625 187.144531 L 188.582031 189.726562 C 188.566406 189.785156 188.511719 189.828125 188.449219 189.828125 " fill-opacity="1" fill-rule="nonzero"/><path fill="#75c7fe" d="M 208.792969 203.246094 C 208.792969 203.441406 208.636719 203.597656 208.441406 203.597656 C 208.246094 203.597656 208.085938 203.441406 208.085938 203.246094 C 208.085938 203.050781 208.246094 202.894531 208.441406 202.894531 C 208.636719 202.894531 208.792969 203.050781 208.792969 203.246094 " fill-opacity="1" fill-rule="nonzero"/><path fill="#f4515e" d="M 215.351562 193.382812 C 215.347656 193.382812 215.34375 193.382812 215.335938 193.382812 L 209.175781 192.679688 C 209.101562 192.671875 209.046875 192.601562 209.054688 192.527344 C 209.0625 192.453125 209.132812 192.394531 209.207031 192.40625 L 215.367188 193.109375 C 215.445312 193.117188 215.496094 193.1875 215.488281 193.261719 C 215.480469 193.332031 215.421875 193.382812 215.351562 193.382812 " fill-opacity="1" fill-rule="nonzero"/><path fill="#caefff" d="M 133.644531 85.109375 C 132.125 84.007812 129.277344 81.246094 126.5 80.316406 C 124.96875 79.804688 123.285156 80.261719 121.796875 80.886719 C 120.308594 81.511719 118.855469 82.3125 117.253906 82.515625 C 115.652344 82.71875 113.804688 82.136719 113.121094 80.675781 C 112.433594 79.207031 113.050781 77.199219 111.910156 76.046875 C 110.589844 74.71875 108.34375 75.789062 106.886719 76.96875 C 104.503906 78.894531 101.660156 82.796875 99.652344 85.109375 L 133.644531 85.109375 " fill-opacity="1" fill-rule="nonzero"/><path fill="#caefff" d="M 304.710938 98.933594 C 300.949219 97.453125 299.375 92.601562 295.605469 91.15625 C 292.886719 90.109375 289.769531 91.179688 287.402344 92.875 C 286.332031 93.636719 285.273438 94.566406 283.96875 94.710938 C 282.066406 94.921875 280.421875 93.414062 279.289062 91.878906 C 278.152344 90.339844 277.117188 88.566406 275.363281 87.796875 C 273.488281 86.972656 271.230469 87.574219 269.582031 88.785156 C 267.929688 89.996094 266.761719 91.738281 265.625 93.441406 C 264.648438 94.90625 263.671875 97.46875 262.699219 98.933594 L 304.710938 98.933594 " fill-opacity="1" fill-rule="nonzero"/></svg>